<svg width="407" height="351" fill="none" xmlns="http://www.w3.org/2000/svg"><path d="M28.184 6.411c1.078 9.519 1.653 20.258-.009 29.237-1.2 14.488.971 28.718.172 43.139-.822 15.156.382 31.178.771 46.564-1.105 9.18.18 18.796.018 28.212-.032 13.081.356 26.251 1.917 38.78-1.422 10.337 1.71 21.813 1.041 33.321 1.911 14.93.45 32.416.563 46.321-.393 8.065.188 16.043-.365 24.334 1.189 8.65 2.131 17.342.744 25.443.693 8.682-.65 16.895.031 24.983 1.38 8.155 2.185-15.362 3.015-19.621.095-14.832.463-29.25.449-43.199.244-13.993.136-28.1.393-42.592-.895-14.016-2.2-28.181-2.931-42.39-.752-12.059-.28-24.203-1.934-36.352-.013-22.409.36-44.905-.968-66.927.797-12-.454-24.803-.006-38.09-.84-11.1.821-22.189.141-32.936C30.853 17.26 33.54 4.756 28.249.566c-.728 1.883 1.229 3.965-.065 5.845zM96.88 279.865c.574-12.492.837-23.572.975-36.571.072-11.445 1.139-20.543-.026-31.426 2.275-12.504-.16-29.535 1.69-42.497.54-15.819.112-33.507.29-50.061.673-10.4-.518-24.404-.027-36.328.542-15.87-1.93-31.085-.812-47.022.588-10.971-7.382-30.065 4.24-35.742.944 8.048-.533 18.777.445 28.388 1.016 14.388.765 30.797 1.902 44.7.146 12.406-.336 24.64 1.003 36.338-.527 12.125.524 24.295-.947 35.365 1.565 15.131-.749 30.01-.025 45.802-.818 10.69-.877 21.879-1.174 32.767-.465 9.086-.642 18.73-.758 28.12-.088 16.148-.583 31.459-.978 46.977.398 14.495-.689 26.456-.957 40.302 1.667 12.893-6 6.133-3.588.362-1.257-10.202-.125-21.49-.559-31.799-1.853-9.553 1.156-18.33-.694-27.675zm75.012-261.181c-.121 12.364.574 24.841.969 37.529 1.032 15.17 1.188 31.134.832 46.958-1.416 19.129-.59 40.137-.83 60.209-.021 29.774.039 59.599.016 89.34 2.991 13.208-.744 27.764 1.853 40.622-.39 17.354 1.684 34.203-.899 51.215-3.268 13.662-3.046-15.814-2.888-21.05-.07-13.023-1.57-26.763-1.329-39.05-1.489-13.486.137-28.136-1.63-41.554.634-11.998-.177-25.812-1.072-37.888 2.775-16.582-.425-33.843 2.113-50.399a576.984 576.984 0 0 1-.03-36.463c-.524-14.94-1.706-29.807.15-44.18-.23-18.252-.386-36.432-2.096-54.397-.915-4.895 1.057-27.838 3.962-13.811-.672 4.507 1.701 8.294.879 12.919zM8.11 350.016c-6.703-3.316-2.745-13.668-3.573-20.394.303-16.06 1.03-32.763 1.365-48.006.414-12.874 1.335-26.308 1.611-39.732-.882-11.953 1.083-26.987-.655-40.255.08-16.763.28-33.272-.651-49.987-.003-17.05-1.153-33.661-.74-50.655-1.693-12.402-1.13-24.964-1.83-37.766-1.558-10.494-.505-22.411-1.86-33.66C3.241 22.818-3.334-2.22 6.45 2.447c2.078 13.94 1.423 28.916 2.399 43.307 1.34 14.31 1.506 27.527 1.918 42.194.608 13.759 1.761 27.36 1.822 41.562.46 10.525-.038 20.235 1.065 30.924-.782 12.394 1.572 24.316.21 36.29 1.091 13.41.892 26.19.814 39.862-.532 23.01-1.28 46.02-1.71 69.03-2.077 11.158-1.345 23.32-1.936 35.251-.54 2.907 1.39 8.684-2.922 9.149zM83.757 6.411c-1.079 9.519-1.654 20.257.007 29.237 1.2 14.489-.972 28.718-.173 43.139.822 15.156-.382 31.178-.771 46.564 1.105 9.18-.18 18.796-.018 28.212.031 13.08-.356 26.251-1.918 38.78 1.42 10.337-1.71 21.814-1.042 33.321-1.912 14.93-.447 32.416-.564 46.321.393 8.066-.188 16.043.365 24.334-1.19 8.65-2.132 17.342-.744 25.443-.693 8.681.647 16.895-.033 24.983-1.38 8.155-2.184-15.362-3.014-19.621-.095-14.831-.463-29.25-.45-43.199-.243-13.992-.133-28.1-.39-42.592.893-14.016 2.2-28.181 2.93-42.39.752-12.059.281-24.203 1.935-36.352.015-22.409-.36-44.905.969-66.927-.798-11.998.454-24.803.006-38.09.84-11.1-.824-22.19-.14-32.936.373-7.378-2.314-19.882 2.977-24.072.728 1.882-1.228 3.96.068 5.845zm70.089 337.238c-1.077-9.518-1.651-20.256.009-29.236 1.203-14.489-.97-28.718-.172-43.139.824-15.159-.382-31.179-.77-46.565 1.105-9.18-.18-18.796-.019-28.212.032-13.08-.355-26.25-1.916-38.779 1.422-10.337-1.71-21.814-1.041-33.322-1.91-14.93-.451-32.415-.563-46.32.392-8.065-.188-16.043.364-24.335-1.188-8.65-2.13-17.342-.744-25.443-.692-8.682.65-16.896-.03-24.982-1.38-8.157-2.185 15.36-3.015 19.62-.094 14.832-.463 29.251-.45 43.2-.243 13.992-.135 28.1-.393 42.591.896 14.016 2.2 28.182 2.932 42.39.752 12.06.28 24.204 1.934 36.352.013 22.41-.36 44.906.968 66.928-.797 11.998.454 24.803.006 38.089.839 11.1-.821 22.189-.142 32.935.375 7.38-2.314 19.88 2.977 24.073.73-1.882-1.229-3.966.065-5.845zm-99.813-99.553c-.825-11.161 1.416-21.479-.097-33.014-1.67-9.12 3.303-17.003.409-26.184.874-12.936.077-27.703.72-39.87-.494-12.357-1.118-23.89-1.998-35.896-.016-9.779-.732-19.253-.587-28.088-1.068-8.389.579-17.614-1.345-26.866-.866-13.593-1.143-27.812-.793-41.303-2.815-5.517 8.108-20.87 4.697-4.828-1.257 13.087 1.383 26.602 1.066 40.22.551 8.816 1.986 18.822 1.824 27.67.519 8.445 1.874 19.192 1.269 27.706-.015 9.934 1.903 22.305.584 32.17 2.942 11.805 1.433 24.485 1.94 36.539.828 10.572.231 22.097 1.009 32.407.39 12.186-.955 22.708-.15 33.621-.38 10.051-.645 21.245-.797 32.577-.038 12.286-.762 23.145-1.38 34.671.96 11.48-1.723 23.181-.556 34.766 1.078 13.705-15.304 10.33-9.838-1.137.898-10.655.857-22.281 2.027-32.505-.092-14.935 1.524-28.66 1.092-43.698.1-5.9.8-12.582.904-18.958zm69.902.223c-.959-17.776-.611-34.382-.433-52.134-.244-13.275-.84-26.252-.521-38.671-.18-10.274.579-20.68-.407-31.971-1.03-9.808-.44-20.04-1.085-29.63.632-13.098-2.881-24.477-1.76-37.345-5.17-10.15 4.634-13.614-1.09-16.963-.22-8.136.645-16.018.017-23.942 1.399-3.37 5.055-22.192 6.775-7.137.91 16.016 1.819 32.087 1.932 48.254 1.697 18.86.658 38.222 1.055 57.304.917 16.816 1.697 37.027.714 54.26 2.142 13.13.06 25.696.502 38.55-.533 9.911 1.525 19.8-.345 29.69.597 12.967.286 28.192-.748 41.82 1.642 13.645.4 25.661 1.737 38.743-1.194 11.632 4.537 23.416.911 34.042-12.183-.175-3.421-25.135-7.695-34.73.04-15.536.15-30.565-1.015-44.897 1.588-7.448-.31-20.49 1.029-25.576-.45.575 1.289 1.831.427.333zm-2.383-198.631c-1.492-5.686-.638 5.121 0 0zm-.828 8.136c.488 2.463 1.08-1.668 0 0zm68.199 289.825c1.076-9.518 1.655-20.257-.008-29.236-1.2-14.489.971-28.718.174-43.139-.824-15.158.382-31.179.77-46.565-1.105-9.18.18-18.796.018-28.212-.03-13.08.354-26.252 1.919-38.779-1.424-10.337 1.71-21.815 1.041-33.322 1.911-14.93.448-32.414.564-46.32-.393-8.066.188-16.042-.364-24.335 1.187-8.65 2.131-17.34.743-25.443.692-8.681-.647-16.895.033-24.982 1.38-8.157 2.184 15.36 3.014 19.62.096 14.832.463 29.25.45 43.2.244 13.992.132 28.1.391 42.591-.895 14.016-2.2 28.182-2.931 42.39-.751 12.06-.282 24.204-1.935 36.352-.015 22.41.36 44.906-.968 66.928.797 11.998-.455 24.803-.005 38.089-.84 11.1.821 22.19.14 32.935-.376 7.38 2.313 19.88-2.978 24.073-.73-1.882 1.23-3.963-.068-5.845z" fill="#f5f4ed"/><path d="M28.187 6.411c1.078 9.519 1.653 20.258-.009 29.237-1.201 14.488.971 28.717.172 43.139-.823 15.157.381 31.178.771 46.564-1.105 9.18.18 18.796.018 28.212-.032 13.081.356 26.252 1.917 38.78-1.422 10.336 1.71 21.813 1.041 33.321 1.91 14.93.45 32.416.563 46.321-.394 8.065.188 16.043-.365 24.334 1.189 8.65 2.131 17.342.744 25.443.692 8.682-.65 16.896.031 24.983 1.38 8.155 2.184-15.363 3.015-19.621.095-14.831.463-29.25.449-43.199.244-13.992.136-28.1.393-42.592-.895-14.016-2.2-28.181-2.931-42.39-.752-12.059-.28-24.203-1.934-36.352-.013-22.409.36-44.905-.968-66.927.797-12-.455-24.803-.006-38.09-.84-11.1.821-22.189.141-32.936-.373-7.378 2.314-19.882-2.977-24.072-.728 1.883 1.229 3.965-.065 5.845zm95.751 237.908c-.959-17.776-.61-34.382-.433-52.134-.245-13.275-.84-26.252-.521-38.671-.18-10.274.578-20.68-.407-31.971-1.03-9.808-.44-20.04-1.085-29.63.632-13.098-2.882-24.477-1.76-37.345-5.17-10.15 4.634-13.614-1.09-16.963-.22-8.136.645-16.018.017-23.942 1.399-3.37 5.055-22.192 6.775-7.137.91 16.016 1.82 32.087 1.931 48.254 1.698 18.86.658 38.222 1.056 57.304.917 16.816 1.697 37.027.714 54.26 2.142 13.13.06 25.695.502 38.55-.533 9.912 1.525 19.798-.345 29.69.596 12.967.287 28.192-.748 41.82 1.642 13.645.4 25.661 1.737 38.743-1.194 11.632 4.537 23.416.911 34.042-12.183-.175-3.421-25.135-7.695-34.73.04-15.536.15-30.565-1.015-44.897 1.588-7.448-.31-20.49 1.029-25.576-.45.575 1.289 1.831.427.333zm-2.383-198.631c-1.492-5.686-.638 5.121 0 0zm-.828 8.136c.488 2.463 1.08-1.668 0 0zM54.036 244.096c-.825-11.161 1.416-21.479-.097-33.014-1.67-9.12 3.303-17.003.409-26.184.873-12.937.077-27.703.72-39.87-.494-12.357-1.118-23.89-1.998-35.896-.016-9.779-.732-19.253-.587-28.088-1.069-8.389.579-17.614-1.345-26.866-.865-13.593-1.143-27.812-.793-41.303-2.815-5.518 8.108-20.869 4.697-4.828-1.258 13.086 1.384 26.602 1.066 40.22.552 8.815 1.986 18.822 1.824 27.67.519 8.445 1.874 19.192 1.269 27.706-.015 9.934 1.903 22.305.584 32.17 2.942 11.805 1.433 24.485 1.94 36.539.828 10.572.231 22.097 1.009 32.407.39 12.186-.955 22.708-.15 33.621-.379 10.051-.646 21.245-.797 32.577-.038 12.286-.762 23.146-1.38 34.671.96 11.48-1.723 23.181-.556 34.766 1.078 13.705-15.304 10.33-9.838-1.137.898-10.655.857-22.282 2.027-32.505-.092-14.935 1.524-28.661 1.092-43.698.1-5.885.799-12.591.904-18.958zm99.813 99.553c-1.077-9.518-1.651-20.256.009-29.236 1.203-14.489-.97-28.718-.172-43.139.824-15.158-.382-31.179-.77-46.565 1.105-9.18-.18-18.796-.019-28.212.032-13.08-.355-26.25-1.916-38.779 1.422-10.337-1.71-21.814-1.042-33.322-1.908-14.93-.451-32.415-.562-46.32.392-8.064-.188-16.043.364-24.335-1.189-8.649-2.13-17.342-.744-25.443-.691-8.682.65-16.895-.03-24.982-1.38-8.158-2.186 15.36-3.015 19.62-.094 14.832-.463 29.251-.45 43.2-.243 13.991-.135 28.1-.393 42.591.896 14.016 2.2 28.181 2.932 42.39.751 12.06.281 24.203 1.933 36.352.015 22.41-.36 44.906.969 66.928-.798 11.998.454 24.803.006 38.089.838 11.1-.821 22.19-.142 32.935.375 7.38-2.314 19.88 2.977 24.073.728-1.883-1.23-3.965.065-5.845zM83.76 6.411c-1.078 9.519-1.655 20.256.007 29.237 1.2 14.489-.972 28.718-.173 43.139.822 15.156-.382 31.178-.771 46.564 1.106 9.18-.181 18.796-.018 28.212.03 13.08-.355 26.252-1.919 38.78 1.424 10.336-1.71 21.814-1.041 33.321-1.912 14.93-.447 32.416-.564 46.321.393 8.066-.188 16.043.365 24.334-1.19 8.65-2.131 17.341-.744 25.443-.692 8.681.647 16.895-.033 24.983-1.38 8.155-2.184-15.362-3.014-19.621-.095-14.832-.463-29.25-.45-43.199-.244-13.993-.132-28.1-.391-42.592.895-14.016 2.2-28.181 2.931-42.39.75-12.06.282-24.204 1.935-36.352.015-22.409-.36-44.905.969-66.927-.798-11.998.454-24.803.005-38.09.84-11.1-.822-22.19-.14-32.936.375-7.379-2.314-19.882 2.978-24.072.729 1.882-1.231 3.962.068 5.845zm13.123 273.454c.573-12.492.838-23.572.975-36.571.072-11.445 1.139-20.543-.026-31.426 2.275-12.504-.16-29.535 1.69-42.497.54-15.819.112-33.507.29-50.061.673-10.4-.518-24.404-.027-36.328.542-15.87-1.93-31.085-.812-47.022.588-10.97-7.382-30.065 4.24-35.742.944 8.049-.534 18.777.444 28.388 1.018 14.388.766 30.796 1.903 44.7.146 12.406-.336 24.64 1.003 36.338-.527 12.125.524 24.294-.947 35.365 1.565 15.131-.749 30.01-.025 45.802-.818 10.69-.877 21.88-1.174 32.767-.464 9.086-.642 18.73-.758 28.12-.088 16.148-.583 31.459-.978 46.977.398 14.495-.689 26.456-.957 40.302 1.667 12.893-6 6.133-3.588.362-1.257-10.202-.124-21.49-.56-31.799-1.85-9.445 1.155-18.449-.693-27.675zM8.114 350.016c-6.706-3.315-2.744-13.668-3.573-20.394.302-16.06 1.03-32.763 1.364-48.006.413-12.874 1.335-26.308 1.611-39.732-.882-11.953 1.085-26.987-.656-40.255.082-16.763.28-33.272-.65-49.987-.003-17.05-1.153-33.661-.74-50.655-1.695-12.402-1.13-24.964-1.83-37.766-1.557-10.494-.507-22.411-1.86-33.66C3.244 22.82-3.33-2.22 6.452 2.447c2.078 13.94 1.423 28.916 2.399 43.307 1.34 14.31 1.505 27.527 1.918 42.194.607 13.76 1.762 27.359 1.822 41.562.459 10.525-.038 20.235 1.065 30.924-.782 12.394 1.572 24.315.21 36.29 1.091 13.41.891 26.19.814 39.862-.532 23.01-1.28 46.02-1.71 69.03-2.077 11.158-1.345 23.32-1.936 35.251-.559 2.965 1.431 8.573-2.921 9.149zM171.895 18.684c-.121 12.364.574 24.841.969 37.529 1.031 15.17 1.189 31.134.832 46.958-1.416 19.128-.59 40.137-.83 60.209-.021 29.774.039 59.599.016 89.34 2.991 13.208-.743 27.764 1.853 40.622-.389 17.354 1.683 34.202-.899 51.215-3.268 13.662-3.046-15.814-2.888-21.05-.071-13.023-1.57-26.763-1.329-39.05-1.489-13.486.137-28.136-1.63-41.554.634-11.998-.178-25.812-1.072-37.888 2.775-16.582-.425-33.843 2.113-50.399a576.511 576.511 0 0 1-.03-36.463c-.524-14.94-1.706-29.807.15-44.18-.23-18.252-.386-36.432-2.096-54.397-.915-4.895 1.057-27.838 3.962-13.811-.672 4.507 1.701 8.294.879 12.919zm17.031 324.965c1.076-9.518 1.654-20.256-.008-29.236-1.2-14.489.971-28.718.174-43.139-.825-15.158.381-31.179.77-46.565-1.105-9.18.18-18.796.019-28.212-.032-13.08.354-26.252 1.918-38.779-1.424-10.337 1.71-21.815 1.041-33.322 1.911-14.93.448-32.414.564-46.32-.393-8.065.187-16.043-.364-24.335 1.187-8.65 2.13-17.34.743-25.443.692-8.682-.647-16.895.033-24.982 1.379-8.157 2.184 15.361 3.015 19.62.095 14.832.462 29.251.449 43.2.244 13.992.132 28.1.391 42.591-.895 14.016-2.2 28.182-2.931 42.39-.751 12.06-.282 24.204-1.935 36.352-.015 22.41.36 44.906-.969 66.928.798 11.998-.454 24.803-.006 38.089-.838 11.1.822 22.19.141 32.935-.375 7.38 2.314 19.88-2.978 24.073-.729-1.882 1.232-3.963-.067-5.845zM237.369 6.411c1.077 9.518 1.652 20.257-.009 29.237-1.202 14.488.97 28.718.172 43.139-.824 15.157.383 31.178.77 46.564-1.104 9.181.181 18.795.019 28.212-.033 13.08.356 26.251 1.916 38.78-1.421 10.337 1.71 21.814 1.042 33.321 1.91 14.93.45 32.416.563 46.321-.394 8.064.187 16.043-.365 24.334 1.189 8.65 2.13 17.342.744 25.443.692 8.681-.65 16.895.03 24.983 1.38 8.155 2.185-15.362 3.016-19.621.095-14.832.462-29.25.449-43.199.243-13.992.135-28.1.393-42.592-.895-14.016-2.2-28.181-2.932-42.39-.75-12.06-.28-24.203-1.933-36.352-.015-22.41.36-44.905-.969-66.927.798-11.998-.454-24.804-.006-38.09-.838-11.1.821-22.19.142-32.936-.376-7.378 2.315-19.882-2.977-24.072-.728 1.883 1.23 3.965-.065 5.845zm68.696 273.454c.572-12.492.837-23.571.975-36.571.072-11.446 1.139-20.543-.027-31.426 2.277-12.506-.16-29.533 1.691-42.497.541-15.82.112-33.507.29-50.061.672-10.4-.519-24.404-.027-36.328.542-15.87-1.93-31.085-.812-47.022.59-10.972-7.383-30.064 4.239-35.742.946 8.047-.533 18.777.445 28.388 1.018 14.387.765 30.795 1.903 44.7.143 12.406-.336 24.64 1.003 36.338-.526 12.125.522 24.295-.947 35.365 1.563 15.132-.749 30.01-.025 45.802-.817 10.69-.878 21.88-1.175 32.767-.463 9.086-.641 18.73-.757 28.12-.09 16.148-.583 31.459-.978 46.977.397 14.495-.688 26.455-.958 40.302 1.668 12.893-6 6.132-3.587.362-1.259-10.202-.125-21.49-.559-31.799-1.851-9.445 1.153-18.45-.694-27.675zm75.012-261.181c-.122 12.364.573 24.841.968 37.529 1.033 15.17 1.19 31.134.832 46.958-1.415 19.13-.59 40.137-.83 60.209-.02 29.774.038 59.599.017 89.34 2.991 13.209-.744 27.764 1.853 40.622-.39 17.354 1.683 34.202-.899 51.215-3.269 13.662-3.046-15.814-2.888-21.05-.073-13.023-1.568-26.762-1.33-39.05-1.487-13.486.137-28.135-1.629-41.554.633-11.998-.177-25.812-1.072-37.888 2.775-16.582-.425-33.843 2.113-50.399a576.07 576.07 0 0 1-.03-36.463c-.524-14.94-1.707-29.807.15-44.18-.232-18.252-.385-36.432-2.097-54.397-.916-4.896 1.059-27.838 3.962-13.811-.67 4.507 1.7 8.293.88 12.919zM217.295 350.016c-6.704-3.316-2.745-13.668-3.573-20.394.313-16.047.951-32.737 1.365-48.006.412-12.875 1.335-26.308 1.61-39.732-.881-11.952 1.083-26.986-.654-40.255.08-16.763.28-33.272-.651-49.987-.003-17.05-1.153-33.662-.74-50.655-1.695-12.402-1.13-24.963-1.83-37.766-1.557-10.494-.507-22.41-1.86-33.66 1.464-6.742-5.11-31.78 4.672-27.114 2.078 13.94 1.424 28.916 2.4 43.307 1.34 14.31 1.505 27.527 1.918 42.194.606 13.76 1.761 27.36 1.821 41.562.458 10.526-.035 20.234 1.065 30.924-.78 12.394 1.573 24.315.21 36.29 1.093 13.41.892 26.19.815 39.862-.533 23.01-1.281 46.02-1.71 69.03-2.075 11.158-1.347 23.32-1.936 35.251-.558 2.965 1.43 8.573-2.922 9.149zM292.941 6.411c-1.078 9.518-1.654 20.258.007 29.237 1.201 14.488-.972 28.718-.173 43.139.825 15.157-.383 31.178-.77 46.564 1.104 9.181-.18 18.796-.018 28.212.03 13.08-.356 26.252-1.919 38.78 1.422 10.336-1.71 21.813-1.041 33.321-1.912 14.93-.448 32.413-.564 46.321.392 8.064-.187 16.043.364 24.334-1.189 8.649-2.13 17.342-.744 25.443-.691 8.682.647 16.896-.032 24.983-1.38 8.156-2.183-15.362-3.015-19.621-.095-14.832-.463-29.25-.449-43.199-.244-13.993-.132-28.1-.392-42.592.896-14.016 2.2-28.181 2.932-42.39.75-12.06.281-24.204 1.935-36.352.013-22.409-.36-44.905.968-66.927-.797-11.999.454-24.804.006-38.09.84-11.1-.823-22.19-.14-32.936.376-7.379-2.314-19.881 2.977-24.072.728 1.882-1.23 3.96.068 5.845zm70.09 337.238c-1.076-9.518-1.653-20.257.009-29.236 1.202-14.488-.97-28.718-.172-43.139.823-15.158-.382-31.179-.77-46.565 1.103-9.18-.182-18.796-.019-28.212.032-13.08-.355-26.252-1.917-38.779 1.424-10.337-1.71-21.815-1.041-33.322-1.91-14.93-.45-32.415-.563-46.32.394-8.065-.187-16.044.365-24.335-1.19-8.65-2.13-17.341-.744-25.443-.691-8.682.649-16.895-.03-24.982-1.38-8.157-2.185 15.362-3.016 19.62-.095 14.832-.463 29.251-.449 43.2-.243 13.992-.136 28.1-.393 42.591.895 14.016 2.2 28.182 2.931 42.39.752 12.06.281 24.204 1.934 36.352.014 22.41-.36 44.906.968 66.928-.797 11.998.455 24.804.006 38.089.84 11.1-.82 22.189-.14 32.935-2.295 2.044 1.952 38.896 3.041 18.228zm-99.813-99.553c-.825-11.161 1.416-21.478-.097-33.014-1.67-9.12 3.301-17.002.408-26.184.873-12.937.078-27.703.72-39.87-.493-12.356-1.118-23.892-1.998-35.896-.016-9.778-.732-19.253-.586-28.088-1.07-8.387.58-17.614-1.346-26.866-.865-13.593-1.143-27.81-.792-41.303-2.816-5.519 8.109-20.869 4.697-4.828-1.26 13.088 1.384 26.601 1.065 40.22.552 8.816 1.988 18.82 1.824 27.67.519 8.444 1.876 19.192 1.269 27.706-.013 9.934 1.902 22.305.585 32.17 2.941 11.805 1.432 24.484 1.939 36.539.829 10.574.232 22.097 1.01 32.407.39 12.186-.956 22.71-.15 33.621-.38 10.051-.645 21.245-.797 32.577-.038 12.286-.762 23.146-1.38 34.671.96 11.48-1.724 23.181-.557 34.766 1.078 13.705-15.303 10.33-9.838-1.137.897-10.655.858-22.281 2.028-32.505-.093-14.935 1.525-28.66 1.091-43.698.102-5.886.798-12.592.905-18.958zm69.901.223c-.958-17.776-.611-34.382-.433-52.134-.244-13.275-.84-26.252-.52-38.671-.18-10.275.578-20.679-.407-31.971-1.03-9.809-.442-20.039-1.085-29.63.63-13.098-2.881-24.478-1.76-37.345-5.17-10.15 4.633-13.614-1.09-16.963-.22-8.135.644-16.018.017-23.942 1.397-3.371 5.055-22.192 6.774-7.137.91 16.016 1.82 32.087 1.932 48.254 1.699 18.86.657 38.222 1.056 57.304.914 16.815 1.699 37.027.713 54.26 2.143 13.13.06 25.695.503 38.55-.534 9.912 1.525 19.798-.346 29.69.598 12.968.286 28.19-.748 41.82 1.643 13.643.401 25.662 1.737 38.743-1.194 11.632 4.539 23.417.911 34.042-12.182-.175-3.421-25.135-7.694-34.73.037-15.538.15-30.565-1.016-44.897 1.589-7.447-.308-20.494 1.029-25.576-.448.574 1.288 1.831.427.333zm-2.382-198.631c-1.491-5.687-.64 5.122 0 0zm-.829 8.136c.488 2.462 1.082-1.668 0 0zm68.199 289.825c1.077-9.518 1.655-20.256-.007-29.236-1.201-14.488.973-28.718.173-43.139-.823-15.158.382-31.179.77-46.565-1.103-9.18.181-18.796.019-28.212-.031-13.08.355-26.25 1.918-38.779-1.422-10.337 1.71-21.814 1.041-33.322 1.913-14.93.447-32.413.565-46.32-.394-8.065.187-16.044-.365-24.335 1.19-8.65 2.13-17.341.744-25.443.693-8.681-.648-16.896.032-24.982 1.38-8.157 2.184 15.362 3.015 19.62.094 14.832.463 29.251.45 43.2.242 13.99.133 28.1.39 42.591-.894 14.016-2.2 28.182-2.93 42.39-.752 12.06-.281 24.203-1.936 36.352-.013 22.41.36 44.906-.968 66.928.797 11.998-.453 24.803-.006 38.089-.84 11.1.823 22.19.14 32.935 2.292 2.043-1.949 38.894-3.045 18.228z" fill="#f5f4ed"/><path d="M237.372 6.411c1.077 9.518 1.652 20.257-.009 29.237-1.202 14.488.97 28.718.172 43.139-.825 15.157.382 31.178.77 46.564-.69 10.753.08 21.63.043 32.908-.675 11.81 2.05 24.74.942 35.599 1.521 11.747 1.848 23.845 2.041 36.664 1.776 14.4 1.152 31.001-.264 44.287 1.75 7.52-.303 15.953.998 23.7 1.52 9.151-.272 17.83 1.096 26.3-3.013 8.499.81 16.098-1.887 23.82 5.47-2.017 2.223-20.123 3.9-28.14.504-13.667.953-26.354-.126-39.29 2.123-15.169.071-30.372 1.132-46.155-2.311-12.333-2.046-25.522-3-38.245-.65-13.227-1.108-26.843-1.934-40.47.078-20.35.212-40.685-.968-60.665.798-11.998-.454-24.804-.006-38.09-.838-11.1.821-22.19.142-32.936-.376-7.379 2.314-19.881-2.977-24.072-.728 1.883 1.23 3.965-.065 5.845zm95.75 237.908c-.958-17.776-.611-34.382-.433-52.134-.244-13.275-.84-26.253-.52-38.671-.181-10.275.578-20.679-.407-31.971-1.03-9.807-.442-20.04-1.085-29.63.631-13.098-2.881-24.478-1.76-37.345-5.17-10.15 4.633-13.614-1.09-16.963-.22-8.135.644-16.019.017-23.942 1.397-3.37 5.055-22.192 6.774-7.137.91 16.016 1.82 32.087 1.932 48.254 1.699 18.86.657 38.222 1.056 57.304.914 16.815 1.699 37.027.713 54.26 2.142 13.13.06 25.695.503 38.55-.534 9.912 1.525 19.798-.346 29.69.598 12.968.286 28.19-.748 41.82 1.643 13.643.401 25.662 1.737 38.743-1.194 11.632 4.539 23.417.911 34.042-12.182-.175-3.421-25.135-7.694-34.73.037-15.537.15-30.565-1.016-44.897 1.589-7.447-.308-20.494 1.029-25.576-.448.574 1.288 1.831.427.333zm-2.383-198.631c-1.49-5.687-.638 5.122 0 0zm-.828 8.136c.488 2.462 1.082-1.668 0 0zm-66.69 190.272c-.826-11.161 1.416-21.479-.097-33.014-1.67-9.12 3.301-17.003.408-26.184.873-12.938.079-27.703.72-39.87-.493-12.356-1.118-23.891-1.998-35.896-.016-9.779-.732-19.253-.586-28.088-1.07-8.387.58-17.614-1.346-26.866-.865-13.593-1.143-27.811-.792-41.303-2.817-5.518 8.11-20.869 4.696-4.828-1.258 13.087 1.385 26.602 1.066 40.22.552 8.816 1.987 18.82 1.824 27.67.519 8.444 1.876 19.192 1.269 27.706-.013 9.934 1.903 22.304.584 32.17 2.943 11.805 1.432 24.484 1.94 36.539.828 10.574.233 22.097 1.009 32.407.392 12.186-.955 22.71-.15 33.621-.379 10.05-.645 21.245-.796 32.577-.038 12.285-.763 23.146-1.38 34.671.959 11.48-1.724 23.181-.557 34.766 1.078 13.706-15.303 10.33-9.838-1.137.897-10.655.858-22.281 2.028-32.505-.093-14.935 1.525-28.661 1.091-43.698.102-5.886.798-12.591.905-18.958zm99.813 99.553c-1.076-9.518-1.653-20.257.009-29.236 1.202-14.488-.971-28.717-.172-43.139.823-15.158-.383-31.179-.77-46.565 1.103-9.18-.181-18.796-.019-28.212.032-13.08-.356-26.252-1.917-38.779 1.423-10.337-1.71-21.814-1.041-33.322-1.91-14.93-.45-32.415-.563-46.32.394-8.065-.188-16.044.365-24.335-1.19-8.65-2.13-17.341-.744-25.443-.691-8.682.65-16.895-.031-24.982-1.38-8.157-2.184 15.362-3.015 19.62-.095 14.832-.463 29.251-.449 43.2-.243 13.992-.136 28.1-.393 42.591.895 14.016 2.2 28.182 2.931 42.39.752 12.06.281 24.204 1.934 36.352.014 22.41-.36 44.906.968 66.928-.797 11.998.455 24.804.006 38.089.84 11.1-.821 22.188-.14 32.935-2.295 2.044 1.952 38.896 3.041 18.228zM292.944 6.411c-1.078 9.518-1.654 20.258.007 29.237 1.201 14.488-.972 28.718-.173 43.139.824 15.157-.383 31.178-.77 46.564 1.104 9.181-.181 18.795-.018 28.212.03 13.08-.356 26.252-1.919 38.78 1.422 10.336-1.71 21.813-1.041 33.321-1.913 14.93-.446 32.414-.565 46.321.394 8.065-.187 16.043.365 24.334-1.19 8.65-2.13 17.342-.744 25.443-.691 8.681.647 16.896-.032 24.983-1.38 8.155-2.184-15.362-3.015-19.621-.094-14.832-.463-29.25-.449-43.199-.244-13.992-.133-28.1-.392-42.592.896-14.016 2.2-28.182 2.932-42.39.75-12.06.281-24.204 1.935-36.352.013-22.409-.36-44.905.968-66.927-.797-11.999.454-24.804.006-38.09.84-11.1-.823-22.19-.14-32.936.376-7.378-2.315-19.882 2.977-24.072.728 1.882-1.23 3.96.068 5.845zm13.124 273.454c.572-12.492.838-23.571.975-36.571.072-11.445 1.138-20.542-.027-31.426 2.277-12.505-.16-29.535 1.69-42.497.542-15.82.113-33.507.291-50.061.672-10.402-.518-24.404-.027-36.328.543-15.87-1.932-31.085-.812-47.022.589-10.972-7.382-30.064 4.239-35.742.946 8.047-.533 18.777.445 28.388 1.018 14.387.765 30.795 1.903 44.7.144 12.406-.336 24.64 1.003 36.338-.527 12.125.522 24.296-.947 35.365 1.563 15.132-.749 30.01-.025 45.802-.818 10.69-.878 21.879-1.175 32.767-.464 9.086-.641 18.73-.757 28.12-.089 16.148-.583 31.459-.978 46.977.398 14.495-.688 26.456-.958 40.302 1.668 12.893-6 6.133-3.587.362-1.259-10.202-.125-21.49-.559-31.799-1.851-9.445 1.153-18.45-.694-27.675zm-88.77 70.151c-6.704-3.316-2.745-13.668-3.573-20.394.314-16.047.95-32.737 1.365-48.006.412-12.875 1.335-26.308 1.61-39.732-.882-11.953 1.083-26.986-.654-40.255.08-16.763.279-33.272-.651-49.987-.003-17.05-1.153-33.662-.74-50.655-1.694-12.403-1.13-24.963-1.83-37.766-1.557-10.494-.507-22.41-1.86-33.66 1.464-6.742-5.11-31.78 4.672-27.114 2.078 13.94 1.424 28.916 2.4 43.307 1.34 14.31 1.505 27.527 1.918 42.194.606 13.76 1.761 27.36 1.821 41.562.458 10.526-.035 20.234 1.065 30.924-.78 12.394 1.573 24.315.21 36.29 1.093 13.41.892 26.19.815 39.862-.533 23.01-1.281 46.02-1.71 69.03-2.075 11.158-1.347 23.32-1.936 35.251-.558 2.965 1.43 8.573-2.922 9.149zM381.08 18.684c-.122 12.364.573 24.841.968 37.529 1.033 15.17 1.19 31.134.832 46.958-1.415 19.13-.59 40.137-.83 60.209-.02 29.774.038 59.599.017 89.34 2.99 13.209-.744 27.765 1.853 40.622-.39 17.354 1.684 34.202-.899 51.215-3.269 13.662-3.046-15.814-2.888-21.05-.073-13.023-1.568-26.762-1.33-39.05-1.487-13.486.137-28.136-1.629-41.554.633-11.998-.177-25.812-1.072-37.888 2.775-16.582-.425-33.843 2.113-50.399a576.249 576.249 0 0 1-.03-36.463c-.524-14.94-1.707-29.807.15-44.18.07-14.432-.579-28.64-1.174-42.949.392-10.108-3.53-21.739 1.568-30.992 1.673 5.972 2.297 12.37 2.351 18.652zm17.03 324.965c1.077-9.518 1.655-20.256-.007-29.236-1.202-14.488.972-28.718.173-43.139-.823-15.158.382-31.179.77-46.565-.69-10.754.08-21.63.043-32.908-.675-11.809 2.052-24.742.943-35.599 1.523-11.746 1.848-23.845 2.042-36.664 1.775-14.4 1.15-31-.263-44.287 1.751-7.521-.303-15.953.998-23.7 1.522-9.15-.274-17.832 1.097-26.3-3.013-8.5.81-16.098-1.886-23.82 5.468 2.017 2.223 20.122 3.9 28.14.503 13.667.953 26.354-.126 39.29 2.121 15.168.068 30.373 1.13 46.155-2.312 12.332-2.046 25.523-2.999 38.245-.65 13.227-1.11 26.843-1.937 40.47.08 20.351.212 40.685-.967 60.666.797 11.997-.453 24.803-.006 38.089-.84 11.1.823 22.19.14 32.935 2.291 2.042-1.949 38.894-3.045 18.228z" fill="#f5f4ed"/></svg>