<svg xmlns="http://www.w3.org/2000/svg" width="309" height="194" fill="none"><path fill="#F47B20" d="M274.8 154.8c-.7 1-1.6 1.6-2.6 2.3-1 .7-1.8 1.3-3 1.7A15.3 15.3 0 0 1 256 157l-2.8-2.2c-1-.8-2-1.5-2.8-2.4-.7-.9-1-2.2-1.6-3.2-.6-1.1-1.4-2-1.8-3.2-.4-1.1-1-2.3-1.2-3.4-.2-1.3.2-2.5.3-3.7 0-1.2 0-2.5.4-3.6a12 12 0 0 1 1.8-3.2c.6-.9 1.6-1.5 2.4-2.2.9-.8 1.5-1.7 2.5-2.3 1-.6 2-.9 3-1.2 1.1-.4 2.1-.6 3.2-.6 1.1-.1 2.3-.4 3.3-.2 1.1.3 2 1 3 1.6.9.6 2 1 2.8 1.9.7.8 1.2 1.9 1.7 3 .5 1 .8 2.2 1.4 3.2l1.5 3.2 1.4 3.1c.5 1.2 1.2 2.1 1.6 3.2.3 1.2 1 2.3 1 3.4.1 1.2 0 2.4-.4 3.5-.3 1.1-1 2-1.8 3Z"/><path fill="#A3A510" d="M259.6 113.6c-.4 1.2-1.3 2.2-1.8 3.4-.5 1.1-.8 2.4-1.4 3.5a19 19 0 0 1-2.3 3c-.9.9-2 1.5-3 2.2-1 .6-2.1 1.5-3.4 1.8-1.1.3-2.4 0-3.8 0-1 0-2.2 0-3.2-.2-1.1-.2-2.2-.5-3.2-1-1-.4-1.9-1-2.8-1.6-1-.7-2-1.2-2.7-2-.7-.8-1-2-1.5-3-.6-.9-1.2-1.8-1.5-2.9-.2-1-.7-2.1-.7-3.3 0-1.3.2-2.6.6-3.8.4-1.2 1.4-2.1 2.2-3.2.7-1 1.4-2 2.4-2.8a17.8 17.8 0 0 1 6.7-3.6c1.2-.4 2.5-.5 3.8-.6 1.2-.2 2.5-.5 3.6-.5 1.3 0 2.6 0 3.7.3 1.3.3 2.3 1.2 3.3 1.7 1.2.6 2.5 1 3.3 1.9.8.9 1 2.2 1.4 3.4.4 1.1 1 2.3 1 3.6 0 1.1-.3 2.4-.7 3.7Z"/><path fill="#E6E1AC" d="M246.9 80c.3 1.2.1 2.5-.1 3.8-.3 1.1-1 2.2-1.6 3.3-.5 1-.9 2.3-1.6 3.4-.7 1-1.8 1.6-2.7 2.5-.8 1-1.5 2-2.4 2.8l-3 2.3c-.8.6-2 1-3 1.4-1 .4-2 .6-3.2.7-1.1.1-2.2.2-3.3 0-1.1-.1-2.3-.2-3.3-.6-1.1-.4-2.1-1-3-1.6-1-.7-1.5-1.7-2-2.6-.7-1-1.2-2-1.4-3-.1-1.3-.4-2.5-.2-3.8.2-1.2 1-2.3 1.4-3.5.4-1.1.8-2.3 1.5-3.4l2.3-2.9a18.5 18.5 0 0 1 6-4.4c1.1-.5 2.4-.7 3.6-1 1.2-.3 2.5-.6 3.7-.6 1.3 0 2.5.2 3.7.4 1.3.3 2.6.6 3.6 1.1 1.2.7 2.3 1.4 3 2.4.9 1 1.6 2 2 3.3ZM266.4 117.3c-1-.6-1.6-1.6-2.2-2.6-.5-1-1-2-1.1-3-.2-1.1 0-2.2.3-3.4.2-1 .4-2.1 1-3.1a8.2 8.2 0 0 1 7.6-4.8c1 0 2.2.2 3.2.6a9 9 0 0 1 3.2 2c1 1 1.7 2 2 3.3 0 1.2-.2 2.5-.9 3.7-.5 1-1.2 2.1-2.3 3.1l-2.2 2.2c-.9.7-1.8 1.1-2.7 1.6-1 .5-2 1-2.9 1-1 0-2 0-3-.6Z"/><path fill="#F47B20" d="M251.1 84.5c.7-.9 1.6-1.6 2.3-2.3.8-.8 1.6-1.5 2.6-2 1-.6 2-1 3-1.2 1 0 2 .3 3.2.7a9 9 0 0 1 5 4.5c.5 1 .8 2.3.9 3.4a9 9 0 0 1-.7 3.4 7.3 7.3 0 0 1-1.6 2.9c-.8.8-1.7 1.4-2.8 1.8-1 .3-2.1.2-3.2.3-1 0-2.2.3-3.3.1-1.2-.1-2.1-.7-3-1-1.1-.5-2-1-2.7-1.7a5.6 5.6 0 0 1-1.6-2.8c-.1-1 .2-2 .6-3.2.3-.9.6-2 1.3-2.9ZM210.2 119a8 8 0 0 1-3.4-1.9c-1-.8-1.8-2-2-3.2-.3-1.2-.3-2.6.2-4a12.6 12.6 0 0 1 4.2-5.7 9 9 0 0 1 3-1.4c1-.3 2-.1 3.2 0 1 .1 2 .2 3.1.6a10 10 0 0 1 3.2 2c1 1 1.9 2 2.2 3.2.3 1.2 0 2.5-.4 3.7-.4 1.2-1 2.3-1.9 3.3a11 11 0 0 1-2.3 2.2 9 9 0 0 1-2.8 1.3c-1 .2-2 .2-3.2.1-1 0-2 0-3.1-.2Z"/><path fill="#56B8B8" d="M237.7 142.6c.2 1.2 0 2.4-.1 3.4-.1 1.2 0 2.4-.4 3.5-.3 1-1.4 1.8-2 2.7-.6 1-1.4 1.6-2.2 2.4-.8.7-1.4 1.8-2.4 2.4-.9.6-2 1-3 1.5-1 .3-2.2.4-3.3.6l-3.3.4h-3.3c-1 0-2.2.3-3.3.2l-3.5-.4c-1.1-.2-2.2-.7-3.3-1-1.1-.3-2.3-.3-3.4-.7-1.1-.4-2-1.2-3-1.7s-2.2-.9-3.2-1.5c-1-.7-1.4-2-2.2-2.8-.8-.8-2-1.3-2.6-2.2-.6-1-1.2-2.1-1.5-3.2-.3-1.1.2-2.3.2-3.5 0-1.2 0-2.2.4-3.3.4-1 .7-2.2 1.4-3.1a24 24 0 0 1 5-4.7c.8-.6 1.8-1.1 2.9-1.7 1-.5 2.2-.5 3.2-1 1-.4 1.9-1.3 3-1.7l3.2-1c1.1-.2 2.2-.7 3.3-1l3.2-.1c1 0 2.1.3 3.2.5 1 .1 2.1.1 3.1.4 1 .4 1.8 1.3 2.7 1.8 1 .5 2 .9 2.8 1.5l2.4 2c.7.8 1.5 1.7 2 2.5.7.9 1.1 1.9 1.6 2.8.5 1 1 2 1.3 3 .4 1 .9 2 1 3ZM213.3 87.3c0 1.3 0 2.5-.4 3.7a12.5 12.5 0 0 1-7.5 8c-1.1.4-2.4.3-3.7.3a11 11 0 0 1-3.6-.5 12.3 12.3 0 0 1-6-4.4c-.7-1-1.3-2.1-1.7-3.4-.3-1.1-.4-2.4-.4-3.7 0-1.3.1-2.6.5-3.8.4-1.2 1.2-2.2 2-3.2.6-1 1.3-2.1 2.3-2.9 1-.7 2-1.5 3.2-1.9 1.2-.4 2.5-.5 3.7-.5a11.3 11.3 0 0 1 6.9 2.5c1 .8 2 1.6 2.7 2.6.7 1 1 2.3 1.4 3.5.4 1.2.6 2.4.6 3.7Z"/><path fill="#C3E6E6" d="M202 113a6 6 0 0 1-6 6c-1.1 0-2.1-.2-3-.7a6 6 0 0 1-2-2.3 6 6 0 0 1-1-3c0-1 .3-2 .8-3a6 6 0 0 1 2.2-2c.9-.6 1.9-.8 3-.8 1 0 2 .2 2.9.7a6 6 0 0 1 2.1 2.2 6 6 0 0 1 1 3Z"/><path fill="#A64200" d="M278.7 58.1c-.3 1.1-.7 2.2-1.2 3.2-.4 1-1.4 1.8-2 2.8a28.2 28.2 0 0 1-3.8 5.4c-.8.8-1.6 1.4-2.5 2-.9.7-1.6 1.8-2.6 2.2a16.8 16.8 0 0 1-6.5 1.6c-1.3 0-2.5 0-3.7-.2a22 22 0 0 1-3.5-.7c-1.2-.4-2.2-1.2-3.2-1.8a16.4 16.4 0 0 1-5.5-4.3c-.8-1-1.9-1.8-2.3-3-.4-1-.4-2.4-.5-3.6 0-1.2-.3-2.4 0-3.7.2-1.1 1-2 1.3-3.1.4-1.1.3-2.4.8-3.4s1.6-1.6 2.3-2.5c.7-.9 1-2 1.9-2.8.8-.8 2-1.2 2.9-1.8a20.9 20.9 0 0 1 6.1-2.7c1-.3 2.2-.3 3.4-.4 1.2-.1 2.3-.4 3.4-.4l3.5.1c1.2.1 2.3.5 3.4.8 1.1.3 2.1.9 3 1.4 1.2.6 2 1.2 2.8 2 .9.8 1.8 1.6 2.3 2.6.5 1 .8 2.2 1 3.4v3.5c-.2 1-.4 2.3-.8 3.4Z"/><path fill="#F47B20" d="M233.6 53c.4 1 .6 2.3.7 3.4.2 1.2-.2 2.4-.3 3.6-.2 1.2-.1 2.4-.5 3.5s-.8 2.3-1.6 3.2c-.7 1-1.7 1.7-2.7 2.4-1 .5-2.2.7-3.5 1-1 .2-2.2.2-3.4.2l-3.5-.2c-1.2-.2-2.4-.3-3.5-.6-1.2-.3-2.2-.8-3.2-1.3-1.1-.5-2.2-1-3-1.8-1-.7-1.5-1.8-2.3-2.7-.7-.9-1.3-1.8-1.8-3-.7-1-1.4-2-1.8-3.2-.3-1.3-.3-2.5-.3-3.7a8.9 8.9 0 0 1 2.7-6.6A15.1 15.1 0 0 1 212 44c1.2-.2 2.5-.2 3.8-.2 1.2 0 2.4-.2 3.5 0 1.3 0 2.5 0 3.6.3 1.2.2 2.3.9 3.3 1.3a13.5 13.5 0 0 1 5.4 4.6c.6 1 1.6 1.8 2 3Z"/><path fill="#A3A510" d="M197.5 62c.4 1.5.8 2.8.7 3.9a5.3 5.3 0 0 1-1.8 3.3c-.8.9-2 1.5-3.4 1.7a11 11 0 0 1-3.7-.3c-1.1-.2-2.2-.4-3.1-.8-1-.5-1.8-1.3-2.5-2a9.6 9.6 0 0 1-1.8-2.7c-.5-.9-.8-2-1-3-.2-1.4-.3-2.7-.1-3.8.2-1.3.8-2.5 1.6-3.4.7-.9 2-1.4 3.2-1.7a8 8 0 0 1 3.7.1c1 .3 2 .9 2.8 1.4a10 10 0 0 1 2.4 1.9c.7.7 1.5 1.5 2 2.5l1 3Z"/><path fill="#F47B20" d="M195.7 49c-1 .3-2 .4-3 0-1-.3-1.9-1-2.8-1.7a25 25 0 0 1-2.4-2.1 3 3 0 0 1-.7-3.3c.4-1 1.1-2 2-2.8 1-.9 2-1.6 3-2a7 7 0 0 1 3.4 0c1.1.1 2.1.5 3 1.2.9.7 1.7 1.5 2 2.6a6 6 0 0 1 .2 3.4c-.3 1.1-1 2-1.8 2.9-.8.7-1.8 1.3-2.9 1.8ZM155 149.2a14 14 0 0 1-1.7 3.2c-.6 1-1.4 1.8-2.3 2.6-.9.8-2 1.3-3 1.9-1 .5-2 1.4-3.1 1.8l-3.5.7c-1.3.2-2.4.2-3.5.2-1.3 0-2.4-.3-3.5-.5-1.2-.2-2.2-.8-3.1-1.3-1.1-.5-2.3-1-3-1.9-.6-.9-.8-2-.9-3.3 0-1-.2-2.3.2-3.5.4-1.1 1-2.2 1.6-3.3.7-1 1.6-1.8 2.5-2.6.8-.8 1.7-1.5 2.8-2.1 1-.6 2-1.2 3.3-1.5 1-.3 2.3-.5 3.5-.6 1.2-.1 2.3.2 3.4.3 1.2 0 2.2.2 3.3.5 1.1.3 2.2.5 3.1 1 1 .5 2 1.2 2.7 2 .7.9 1 2 1.2 3 .1 1 .4 2.2 0 3.4Z"/><path fill="#FFEC8C" d="M222.6 19.5c.6-1 1-2 1.8-2.6.8-.7 1.8-1 2.8-1.2 1-.3 2-.4 3.2-.3 1 .2 2.2.2 3.3.6 1 .4 1.8 1.3 2.9 1.8l2.8 1.7c1 .6 2 1 3 1.7s1.8 1.6 2.7 2.3c1 .8 1.6 1.8 2.4 2.6l2.3 2.7c.7 1 1.7 2 2 3 .4 1 .3 2.3 0 3.4 0 1-.7 1.9-1.5 2.9-.6.7-1.2 1.6-2.2 2.4-.9.6-2 .8-3 1.2-1.1.3-2.1 1-3.3 1-1.1 0-2.3-.4-3.5-.6-1-.2-2.3-.2-3.4-.6-1.1-.3-2.1-1-3.3-1.5-1-.5-2.3-.6-3.4-1.2-1-.6-2-1.1-2.8-1.8-1-.7-1.7-1.6-2.4-2.5-.7-.8-1.4-1.8-1.8-2.8a12 12 0 0 1-.8-3.2c-.1-1-.2-2.1-.1-3.2.1-1 .7-2 1-3l1.3-2.8Z"/><path fill="#A3A510" d="M119 145.4c-.4 1.2-1.3 2.2-1.8 3.3-.5 1.2-.8 2.5-1.4 3.5a19 19 0 0 1-2.3 3c-.9 1-2 1.6-3 2.3-1 .6-2.1 1.5-3.4 1.8-1.1.3-2.4 0-3.7 0-1.2 0-2.2 0-3.3-.2-1.1-.3-2.2-.5-3.2-1-1-.4-1.9-1-2.8-1.7-.9-.6-2-1.1-2.7-2-.7-.7-1-1.9-1.5-2.8-.6-1-1.2-2-1.4-3-.3-1-.8-2.1-.8-3.3 0-1.3.2-2.7.6-3.8.4-1.3 1.4-2.2 2.2-3.2.7-1 1.4-2 2.4-2.9a17.8 17.8 0 0 1 6.7-3.5c1.2-.4 2.5-.5 3.8-.7 1.2-.1 2.5-.4 3.6-.4 1.3 0 2.6 0 3.7.3 1.3.3 2.3 1.2 3.3 1.7 1.2.6 2.5 1 3.3 1.8.8 1 1 2.3 1.5 3.5.3 1 1 2.2.9 3.6 0 1.1-.3 2.4-.7 3.7Z"/><path fill="#F47B20" d="M181.2 74.5c.3 1.2.1 2.5 0 3.8-.3 1.1-1 2.2-1.6 3.3-.6 1-.9 2.3-1.7 3.3-.7 1-1.7 1.7-2.6 2.6-.8.9-1.5 2-2.4 2.8l-3 2.2c-.9.7-2 1-3 1.5-1 .4-2.1.6-3.2.7h-3.4c-1-.1-2.2-.2-3.3-.6-1-.4-2.1-1-3-1.6-1-.7-1.4-1.8-2-2.7-.6-1-1.2-1.8-1.3-3-.2-1.2-.4-2.5-.2-3.7.2-1.2.9-2.3 1.3-3.5.5-1.2.9-2.3 1.6-3.4.6-1 1.4-2 2.3-2.9a18.5 18.5 0 0 1 6-4.4c1-.5 2.3-.7 3.5-1 1.3-.3 2.5-.6 3.7-.6 1.3 0 2.6.1 3.8.4 1.2.3 2.5.5 3.6 1.1 1.1.6 2.2 1.4 3 2.3a9 9 0 0 1 2 3.4Z"/><path fill="#E6E1AC" d="M172.7 110.3c-1-.6-1.6-1.6-2.1-2.5-.6-1-1-2-1.2-3.1-.1-1.1 0-2.2.3-3.3.2-1.1.5-2.2 1-3.2.6-1 1.2-1.9 1.9-2.5a8.1 8.1 0 0 1 5.8-2.2 9 9 0 0 1 6.4 2.6c1 1 1.7 2 1.8 3.2.2 1.2 0 2.5-.7 3.8-.5 1-1.3 2-2.3 3-.8.8-1.5 1.6-2.3 2.2-.9.7-1.8 1.2-2.7 1.6-1 .6-1.9 1-2.9 1-1 .1-2 0-3-.6Z"/><path fill="#A64200" d="M173.4 130.6a8 8 0 0 1-3.4-2 6 6 0 0 1-2-3.2c-.3-1.2-.2-2.5.2-3.9a12.6 12.6 0 0 1 4.2-5.7 9 9 0 0 1 3-1.5c1-.2 2 0 3.2 0a10 10 0 0 1 6.3 2.7c1 1 1.9 2 2.2 3.1.3 1.2 0 2.5-.4 3.8a11 11 0 0 1-4.2 5.4 9 9 0 0 1-2.8 1.3c-1 .2-2 .2-3.2.2-1 0-2 0-3.1-.3Z"/><path fill="#C3E6E6" d="M113.8 115c-.2-1.3 0-2.6.1-3.8 0-1.2 0-2.5.4-3.7.3-1.1 1.5-2 2.2-3 .6-1 1.4-1.7 2.3-2.5.9-.8 1.5-2 2.5-2.6 1-.6 2.2-1 3.3-1.5 1.1-.4 2.3-.5 3.5-.7 1.2-.3 2.3-.3 3.6-.4 1.1-.1 2.3-.2 3.5-.1 1.2 0 2.4-.3 3.6-.2l3.7.4 3.6 1.1c1.2.4 2.5.3 3.6.8 1.2.4 2.2 1.3 3.3 1.8 1.1.6 2.4 1 3.3 1.7 1 .7 1.6 2 2.4 2.9 1 .9 2.2 1.4 2.9 2.4.6 1 1.2 2.3 1.6 3.5.3 1.1-.2 2.4-.3 3.7 0 1.2 0 2.4-.4 3.5s-.7 2.3-1.5 3.4c-.7 1-1.5 1.8-2.4 2.7l-2.9 2.3c-1 .7-2 1.2-3.1 1.8-1 .6-2.4.6-3.5 1-1.1.6-2 1.5-3.2 2l-3.5 1c-1.2.2-2.3.8-3.5 1-1.2.2-2.4.2-3.5.2s-2.3-.3-3.3-.5c-1.2-.2-2.4-.2-3.4-.5-1.1-.4-2-1.4-3-2-1-.5-2-.8-2.9-1.5l-2.6-2.2c-.8-.9-1.6-1.7-2.2-2.7-.7-.9-1.2-2-1.7-3l-1.4-3.1c-.4-1.1-1-2.2-1.1-3.3Z"/><path fill="#FFEC8C" d="M184.3 147.6c0 1.3 0 2.5-.4 3.7a12.5 12.5 0 0 1-7.5 8c-1.1.4-2.4.3-3.7.3a11 11 0 0 1-3.6-.5 12.3 12.3 0 0 1-6-4.4c-.7-1-1.3-2.1-1.7-3.4-.3-1.1-.4-2.4-.4-3.7 0-1.3.1-2.6.5-3.8.3-1.2 1.2-2.2 1.9-3.2s1.4-2.1 2.4-2.9c1-.7 2-1.5 3.2-1.9 1.2-.4 2.5-.5 3.7-.5a11.4 11.4 0 0 1 6.9 2.5c1 .8 2 1.6 2.7 2.6.7 1 1 2.3 1.4 3.5.4 1.2.6 2.4.6 3.7Z"/><path fill="#56B8B8" d="M255.3 10.2a6 6 0 0 1-6 5.8c-1 0-2-.1-3-.6a6 6 0 0 1-2-2.3 6 6 0 0 1-1-3c0-1 .4-2 .9-2.9a6 6 0 0 1 2.2-2.1c.8-.5 1.8-.8 3-.8a5.9 5.9 0 0 1 5 3 6 6 0 0 1 .9 2.9Z"/><path fill="#A64200" d="M85.3 185.6a7.7 7.7 0 0 1-4 6.5c-1 .7-2.3 1-3.7 1-1.4 0-2.7-.2-3.8-.9-1.2-.6-2-1.7-2.7-2.8a7.6 7.6 0 0 1-1.2-3.8c0-1.4.4-2.7 1-3.9a7.7 7.7 0 0 1 6.7-3.6c1.4 0 2.7.2 3.8.9 1.1.7 2 1.6 2.7 2.8a7.7 7.7 0 0 1 1.2 3.8Z"/><path fill="#E6E1AC" d="M272.5 27.2c.4 1.4.8 2.6.7 3.7a5.3 5.3 0 0 1-1.8 3.4c-.8.8-2 1.4-3.3 1.6a11 11 0 0 1-3.8-.2c-1.1-.2-2.2-.4-3-.9-1-.5-1.9-1.2-2.6-2a9.6 9.6 0 0 1-1.8-2.6c-.4-1-.8-2-1-3-.2-1.4-.3-2.7-.1-3.8.2-1.3.8-2.5 1.6-3.4.8-1 2-1.4 3.2-1.7a8 8 0 0 1 3.7.1c1 .3 2 .8 2.8 1.3a10 10 0 0 1 2.5 2c.6.7 1.4 1.5 1.9 2.5.4.8.6 1.9 1 3Z"/><path fill="#C3E6E6" d="M269 12.8c-1 .4-2 .4-3 0-1-.2-1.8-.9-2.8-1.6a25 25 0 0 1-2.4-2.1 3 3 0 0 1-.7-3.3c.4-1 1.2-2 2.1-2.9.9-.8 1.9-1.6 3-2a7 7 0 0 1 3.3 0c1.2.2 2.2.6 3 1.3 1 .7 1.7 1.5 2 2.6a6 6 0 0 1 .2 3.4c-.2 1-1 2-1.8 2.8-.8.8-1.7 1.4-2.8 1.8Z"/><path fill="#F47B20" d="m84.5 108 3.1 1.8c1 .7 1.6 1.8 2.4 2.6.8 1 1.8 1.7 2.3 2.7.5 1 1.2 2.2 1.4 3.3.1 1.2.1 2.5-.1 3.7-.2 1-1 2.1-1.5 3.2a35 35 0 0 1-4.6 5.3l-2.7 2.3c-1 .6-2.1 1-3.2 1.5-1 .5-2.1 1-3.3 1.1-1.1.2-2.3 0-3.5 0l-3.4-.6c-1.3-.3-2.5-.4-3.6-.9s-2-1.4-3-2.2c-.8-.8-1.6-1.7-2.2-2.8a9 9 0 0 1-.8-3.6c0-1.1 0-2.3.5-3.6.3-1.1.6-2.3 1.3-3.4.6-1 1.4-2 2.2-3l2.3-2.7c1-.9 1.7-1.8 2.7-2.5 1-.7 2.1-1.1 3.2-1.6a13.4 13.4 0 0 1 6.9-1c1.1.1 2.4 0 3.6.5Z"/><path fill="#FFEC8C" d="M40.7 156c.5.7 1.2 1.2 2 1.7.6.5 1.3 1 2.2 1.2a11.7 11.7 0 0 0 10.2-1.3c.7-.4 1.4-1 2.1-1.6.7-.6 1.6-1.1 2.1-1.8.7-.7.8-1.7 1.3-2.5l1.4-2.4c.3-1 .8-1.8 1-2.7l-.3-2.8c0-1 0-1.9-.3-2.7-.3-.9-.8-1.7-1.4-2.5-.5-.7-1.3-1.1-1.9-1.7-.6-.6-1.1-1.2-1.8-1.7l-2.4-1c-.8-.2-1.6-.4-2.4-.4-.9 0-1.7-.3-2.6-.1-.8.2-1.5.7-2.2 1.2-.7.4-1.6.7-2.2 1.4-.5.6-.8 1.5-1.3 2.3l-1 2.5-1.2 2.4-1 2.4c-.4.9-1 1.6-1.2 2.4-.3 1-.8 1.8-.8 2.6-.1 1 0 1.9.3 2.7.2.9.8 1.6 1.4 2.3Z"/><path fill="#56B8B8" d="M2 147.9c.6-.9 1.5-1.6 2.2-2.3.9-.8 1.7-1.5 2.6-2 1-.6 2-1 3-1.2 1 0 2 .3 3.2.7a9 9 0 0 1 5 4.5c.6 1 .8 2.3.9 3.4 0 1.1-.3 2.3-.7 3.4a7.3 7.3 0 0 1-1.6 2.9c-.7.7-1.7 1.4-2.7 1.8-1 .3-2.2.2-3.3.3-1 0-2.2.3-3.3.1-1.1-.1-2-.7-3-1-1-.5-2-1-2.7-1.7A5.6 5.6 0 0 1 0 154c-.1-1 .2-2 .6-3.2.3-.9.7-2 1.4-2.9Z"/><path fill="#A3A510" d="M307.6 149.6a14 14 0 0 1-1.6 3.2c-.7 1-1.5 1.9-2.4 2.7-.8.7-1.9 1.2-3 1.8-1 .5-1.9 1.5-3 1.8l-3.6.7c-1.2.2-2.4.2-3.5.2-1.2 0-2.3-.2-3.4-.4-1.2-.2-2.2-.8-3.2-1.3-1-.6-2.2-1-2.8-2-.7-.9-1-2-1-3.3 0-1-.2-2.2.2-3.5.4-1.1 1-2.2 1.6-3.2.6-1 1.6-1.8 2.4-2.7.9-.7 1.8-1.5 2.9-2 1-.6 2-1.2 3.3-1.5 1-.3 2.2-.6 3.5-.7 1.2 0 2.3.3 3.3.3 1.2 0 2.3.3 3.3.5 1.2.3 2.3.5 3.2 1 1 .6 2 1.2 2.7 2 .7 1 1 2 1.1 3 .2 1.1.4 2.3 0 3.4Z"/><path fill="#A64200" d="M307.7 124.7c.2 1.2.4 2.3.2 3.4a7.8 7.8 0 0 1-1.4 3c-.6 1-1.4 1.8-2.4 2.5-.8.6-1.8 1.3-2.9 1.8-1 .4-2.2.2-3.4.4-1 .3-2.1.4-3.3.6-1 .1-2.1.6-3.3.6h-3.6c-1.2 0-2.4-.4-3.5-.6l-3.5-.7c-1.2-.4-2.5-.5-3.4-1.1a8 8 0 0 1-2.3-2.9c-.5-1-.5-2.2-.5-3.5 0-1-.2-2.3.2-3.6.3-1.2 1-2.1 1.6-3.2.7-1 1-2.2 2-3.1.7-.8 2-1.3 3-2 1-.6 1.9-1.4 3-1.9 1.1-.4 2.4-.5 3.6-.9 1-.3 2.1-1 3.3-1.4 1.2-.2 2.4-.4 3.4-.4 1.2 0 2.3.2 3.4.4 1.1.3 2.2.6 3.2 1.1a12 12 0 0 1 2.6 2.2 14 14 0 0 1 2.1 2.7c.6 1 .7 2.2 1 3.3.4 1 .7 2.1.9 3.3Z"/><path fill="#FFEC8C" d="M307.8 85c0-1.2 0-2.5-.4-3.7-.4-1.2-1.1-2.2-1.8-3.3a16 16 0 0 0-5.1-5.2 16.3 16.3 0 0 0-6.8-2.6c-1.2-.2-2.4-.4-3.7-.3-1.3 0-2.5.4-3.6.8-1.2.3-2.5.7-3.5 1.3-1.1.6-2.2 1.3-3 2.2-1 .8-2 1.6-2.7 2.7-.8 1-1.2 2.2-1.7 3.4-.5 1.1-.6 2.4-.8 3.6-.2 1.3-.4 2.5-.3 3.8 0 1.2.2 2.5.5 3.7a16 16 0 0 0 1.6 3.3c.7 1.1 1.6 2 2.5 2.8.8 1 1.6 1.9 2.7 2.5 1 .7 2.2 1.1 3.3 1.5 1.2.5 2.3 1.1 3.5 1.3 1.2.2 2.5.2 3.7.1 1.3 0 2.5-.6 3.6-1 1.3-.3 2.4-.8 3.4-1.4 1.1-.6 2.3-1 3.2-2 1-.8 1.6-1.9 2.3-2.9.7-1 1.5-2 2-3.1a16.3 16.3 0 0 0 1.1-7.4Z"/><path fill="#C3E6E6" d="M307.2 53.6A26 26 0 0 1 306 57c-.5 1.2-1 2.3-1.6 3.3-.8 1-1.8 1.6-2.7 2.4-1 .8-1.9 1.6-3 2.1-1 .5-2.2.7-3.4 1-1.3.3-2.6.4-3.7.4-1.4 0-2.6.1-3.7-.2-1.3-.3-2.2-1.2-3-2-1-.8-1.8-1.8-2.1-3a9.8 9.8 0 0 1-.5-3.7c.1-1.2.5-2.4 1-3.7.4-1.2.6-2.4 1.1-3.4.6-1.1 1.3-2.1 2-3 .7-1 1.6-1.9 2.5-2.6.9-.8 1.8-1.6 3-2.1 1-.5 2-1 3.3-1.3 1.3-.3 2.6 0 3.7-.1 1.4 0 2.6-.3 3.7 0 1.3.4 2.2 1.2 3.1 2a7 7 0 0 1 1.8 3.2c.4 1.1.8 2.3.7 3.7 0 1.1-.5 2.3-.9 3.6Z"/><path fill="#E6E1AC" d="M307.8 18c0-1.2 0-2.5-.4-3.7-.4-1.2-1.1-2.2-1.8-3.3a16 16 0 0 0-5.1-5.2 16.3 16.3 0 0 0-6.8-2.6c-1.2-.2-2.4-.4-3.7-.3-1.3 0-2.5.4-3.6.7-1.2.4-2.5.7-3.5 1.4-1.1.6-2.2 1.3-3 2.1-1 .9-2 1.7-2.7 2.7-.8 1-1.2 2.3-1.7 3.5-.5 1.1-.6 2.4-.8 3.6a16.4 16.4 0 0 0 .2 7.4c.4 1.3 1 2.4 1.6 3.4.7 1.1 1.6 2 2.5 2.8.8 1 1.6 1.8 2.7 2.5 1 .7 2.2 1 3.3 1.5 1.2.5 2.3 1.1 3.5 1.3 1.2.2 2.5.2 3.7.1 1.3 0 2.5-.6 3.6-1 1.3-.3 2.4-.8 3.4-1.4 1.1-.6 2.3-1.1 3.2-2 1-.8 1.6-1.9 2.3-3 .7-1 1.5-1.9 2-3a16.3 16.3 0 0 0 1.1-7.4Z"/></svg>