<?xml version="1.0" encoding="UTF-8"?>
<svg fill="none" viewBox="0 0 217 44" xmlns="http://www.w3.org/2000/svg">
<g fill="#7A1600">
<title>Bud Werner Memorial Library</title>
<path d="m6.0404 22.069h-3.9087l-0.14932 0.1496v20.759l0.14932 0.154h12.02l0.1449-0.154v-3.9064l-0.1449-0.154h-7.9623v-16.699l-0.14932-0.1496z"/>
<path d="m33.823 22.218v20.759l0.1494 0.154h3.9087l0.1449-0.154v-20.759l-0.1449-0.1496h-3.9087l-0.1494 0.1496z"/>
<path d="m71.215 27.783c0-3.6073-3.1577-5.7188-7.0576-5.7188h-5.56l-0.145 0.1495v20.764l0.145 0.1496h6.7589c3.9088 0 6.9127-2.2568 6.9127-6.4711 0-2.2567-1.357-4.3595-3.1577-5.1161 1.199-0.6027 2.0993-1.9532 2.0993-3.7612l0.0044 0.0044zm-8.5596-1.5045h1.502c1.6557 0 2.4023 0.7522 2.4023 1.9532 0 1.2009-0.7466 1.9576-2.4023 1.9576h-1.502v-3.9152 0.0044zm2.4067 12.638h-2.4067v-4.509h2.4067c1.4976 0 2.5516 0.6027 2.5516 2.2567 0 1.6541-1.054 2.2523-2.5516 2.2523z"/>
<path d="m91.79 22.218v20.764l0.1493 0.1496h3.9087l0.1494-0.1496v-8.2747h1.502l6.3061 8.2747 0.15 0.1496h4.804l0.15-0.1496-7.212-9.6296c1.801-0.8974 3.009-2.5559 3.009-4.9622 0-3.4577-2.706-6.3171-7.2115-6.3171h-5.56l-0.1494 0.1496 0.0044-0.0044zm4.2074 4.0604h1.502c1.502 0 2.5511 0.5982 2.5511 2.1071s-1.0491 2.1072-2.5511 2.1072h-1.502v-4.2143z"/>
<path d="m138.65 22.069h-4.203l-0.15 0.1496-7.962 20.764 0.154 0.1496h4.655l0.145-0.1496 1.502-4.2099h7.514l1.502 4.2099 0.15 0.1496h4.655l0.154-0.1496-7.958-20.764-0.158-0.1496zm-4.506 12.485 2.402-7.0693 2.402 7.0693h-4.804z"/>
<path d="m178.59 28.386c0-3.4576-2.701-6.3171-7.207-6.3171h-5.56l-0.149 0.1496v20.764l0.149 0.1496h3.904l0.154-0.1496v-8.2747h1.502l6.307 8.2747 0.153 0.1496h4.805l0.149-0.1496-7.211-9.6296c1.801-0.8974 3.004-2.5603 3.004-4.9666zm-7.207 2.1072h-1.502v-4.2099h1.502c1.502 0 2.552 0.5982 2.552 2.1071s-1.05 2.1028-2.552 2.1028z"/>
<path d="m196.01 22.218 7.215 11.433v9.3261l0.145 0.154h3.909l0.149-0.154v-9.3261l7.207-11.433-0.149-0.1496h-4.207l-0.15 0.1496-4.804 7.0693-4.805-7.0693-0.149-0.1496h-4.208l-0.153 0.1496z"/>
<path d="m213.06 11.296v4.4563c0 0.915-0.312 1.1965-1.274 1.1965h-0.048c-0.216 0-0.312 0.0792-0.312 0.2464 0 0.0748 0.022 0.1408 0.048 0.1408l0.075 0.0747 0.14 0.1188c0.027 0.022 0.119 0.0528 0.264 0.0528 0.092 0 0.263-0.0308 0.773-0.0968 0.263-0.0484 0.549-0.0748 0.839-0.0748 0.162 0 0.456 0 0.865 0.0264 0.474 0.022 0.812 0.0484 1.006 0.0704 0.263 0.0484 0.527 0.0748 0.623 0.0748 0.242 0 0.387-0.0968 0.387-0.2463 0-0.2156-0.075-0.286-0.29-0.286-0.022 0-0.215-0.0484-0.549-0.1188l-0.505-0.1187c-0.36-0.0748-0.554-0.4355-0.554-1.0558l-0.022-15.12c0-0.28594-0.118-0.52789-0.289-0.52789l-0.022 0.026394-0.145 0.074786-0.141 0.074783c-0.096 0.04839-0.29 0.16717-0.58 0.38272-0.166 0.14517-0.311 0.24195-0.478 0.31233l-0.479 0.26835-0.72 0.50149-0.22 0.14517v0.16717s0.027 0.04839 0.075 0.07478c0.241 0.16717 0.43 0.24195 0.742 0.33433 0.527 0.14517 0.769 0.29034 0.769 0.40912v0.07478c-0.022 0.04839 0 0.16716 0.052 0.31233 0.044 0.16717 0.044 0.45751 0.022 0.86662 0 0.10118 0 0.93701 0.022 2.4987 0 0.41351 0 1.135-0.022 2.1643-0.048 0.9634-0.048 1.8081-0.048 2.5031l-4e-3 -0.0044z"/>
<path d="m206.57 11.705c-0.888 0.2904-1.274 0.4135-1.726 0.5059-0.817 0.1892-1.322 0.2904-1.516 0.3607-0.456 0.1188-0.887 0.3608-1.247 0.6951-0.294 0.2639-0.479 0.5807-0.58 0.893-0.118 0.3607-0.14 0.6511-0.14 1.1306 0 1.6364 0.694 2.3095 2.349 2.3095 1.52 0 2.166-0.242 3.031-1.2493 0.672 0.915 1.032 1.1789 1.607 1.1789 0.409 0 0.861-0.1452 1.081-0.3343 0.026-0.0264 0.188-0.22 0.456-0.5807 0.22-0.2859 0.334-0.5543 0.334-0.6951 0-0.0527 0-0.1187-0.022-0.1671 0-0.0968-0.048-0.1672-0.075-0.1672l-0.14-0.0264h-0.026c-0.075 0-0.101 0.0264-0.141 0.0968l-0.075 0.1672-0.219 0.3651c-0.022 0.0924-0.141 0.1672-0.312 0.2375-0.07 0.0484-0.167 0.0748-0.237 0.0748-0.171 0-0.36-0.0968-0.505-0.2155-0.264-0.22-0.435-0.5279-0.435-0.8447l0.022-2.481c0-0.3828 0-1.0294 0.053-1.9444v-0.3608c0-2.3095-1.037-3.5632-2.982-3.5632-0.962 0-2.047 0.31233-2.93 0.79623-0.575 0.33433-0.839 0.67306-0.839 1.0558s0.334 0.74785 0.694 0.74785c0.312 0 0.413-0.11878 0.721-0.86663 0.307-0.79623 0.913-1.179 1.752-1.179 1.155 0 2.09 0.88862 2.09 2.0192l-0.026 1.5396-0.017 0.5015zm0.021 2.2656v0.2199c0 1.6585-0.07 1.852-0.667 2.2787-0.435 0.3124-1.032 0.5059-1.467 0.5059-0.29 0-0.549-0.0924-0.887-0.2639-0.193-0.1232-0.312-0.22-0.382-0.2684-0.22-0.2639-0.343-1.0118-0.343-2.0983 0-0.308 0.172-0.7699 0.365-0.959 0.193-0.1716 0.408-0.2684 1.322-0.5323l1.203-0.3343 0.856-0.1936v1.6453z"/>
<path d="m195.88 16.882h-0.452c-0.193 0-0.312 0.0704-0.312 0.1936 0 0.286 0.119 0.3607 0.672 0.3827l0.387 0.0264s0.382-0.0264 1.08-0.0748h0.479c0.334 0 0.72 0.0264 1.08 0.0484 0.215 0 0.431 0.0264 0.602 0.0264 0.479 0 0.795-0.1187 0.795-0.2683v-0.1892c0-0.1452-0.268-0.2463-0.843-0.2903-0.409-0.022-0.668-0.1672-0.791-0.3827-0.097-0.242-0.119-0.4136-0.119-1.4473l0.022-0.2156v-1.6848l0.172-5.4153 0.022-0.14077c0-0.40912-0.049-0.5059-0.286-0.5059-0.145 0-0.193 0.0264-0.312 0.14517l-0.145 0.11878c-0.118 0.11877-0.36 0.26834-0.865 0.4795-0.241 0.09238-0.43 0.16716-0.549 0.21555l-0.478 0.14517-0.505 0.21556c-0.189 0.07478-0.216 0.09678-0.216 0.29034s0.049 0.23755 0.308 0.30793c0.219 0.05279 0.65 0.21996 1.181 0.43991 0.242 0.09238 0.286 0.21556 0.286 0.54989l0.026 1.4165 0.026 1.6849-0.101 2.3139c-0.074 1.2009-0.36 1.5837-1.155 1.6101l-9e-3 0.0043z"/>
<path d="m198.52 3.4519c0.505 0 0.891-0.38712 0.891-0.86662 0-0.43551-0.386-0.82262-0.839-0.82262-0.452 0-0.839 0.38711-0.839 0.86661 0 0.45751 0.356 0.82263 0.787 0.82263z"/>
<path d="m186.86 16.975h-0.14c-0.268 0-0.338 0.0528-0.338 0.2419 0 0.22 0.118 0.286 0.505 0.286h0.215l1.203-0.0968h0.286c0.5 0 1.366 0.0264 1.994 0.0968 0.382 0.0484 0.667 0.0484 0.839 0.0484 0.333 0 0.478-0.0704 0.478-0.264 0-0.2155-0.074-0.2595-0.413-0.2595h-0.118c-0.048 0-0.215-0.0264-0.479-0.0792-0.263-0.0484-0.527-0.1144-0.742-0.2156-0.193-0.0704-0.338-0.1451-0.413-0.2419-0.215-0.2684-0.312-1.157-0.312-3.031v-2.4371c0-1.4385 0.865-2.4547 2.042-2.4547 0.172 0 0.339 0.02639 0.558 0.11877l0.431 0.14077c0.171 0.07919 0.311 0.12318 0.439 0.12318 0.237 0 0.623-0.21556 0.817-0.45751 0.14-0.19356 0.285-0.60267 0.285-0.84022 0-0.36513-0.501-0.65107-1.129-0.65107-0.821 0-1.901 0.55429-2.547 1.2977-0.43 0.4795-0.694 0.72585-0.839 0.72585-0.074 0-0.096-0.07478-0.096-0.19796v-0.07038c0-0.10118 0.022-0.16717 0.022-0.24195l-0.022-0.57628c0-0.82263-0.053-0.91501-0.316-0.91501-0.119 0-0.141 0-0.404 0.18916-0.075 0.05279-0.312 0.17156-0.699 0.36072-0.048 0.0264-0.241 0.11878-0.601 0.33433-0.22 0.09678-0.409 0.19796-0.58 0.26835-0.268 0.11438-0.382 0.19356-0.382 0.26394v0.14517c0 0.04839 0.022 0.07039 0.022 0.09238 0.052 0.05279 0.092 0.09239 0.193 0.14078 0.101 0.02639 0.22 0.05278 0.408 0.12317 0.505 0.14077 0.721 0.24195 0.8 0.38272 0.07 0.14517 0.118 0.55428 0.118 1.3989l-0.026 5.0281 0.026 0.4311c-0.026 0.198-0.145 0.3652-0.316 0.4839-0.285 0.1672-0.602 0.286-0.769 0.286v0.022z"/>
<path d="m180.02 17.696c3.053 0 5.24-2.1908 5.24-5.2701 0-3.0354-2.113-5.2218-5.042-5.2218-1.085 0-2.477 0.40911-3.105 0.915l-0.281 0.24195-0.268 0.19356c-0.913 0.69506-1.541 2.4283-1.541 4.2583 0 2.7934 2.138 4.883 4.997 4.883zm0.071-9.8144c2.261 0 3.557 1.8036 3.557 4.9314 0 2.8418-1.177 4.2891-3.483 4.2891-2.187 0-3.676-1.8564-3.676-4.5267 0-2.9342 1.344-4.6938 3.602-4.6938z"/>
<path d="m158.92 9.5888 0.022 0.26395 0.022 5.798v0.7698c0 0.264-0.382 0.5059-0.961 0.5279-0.361 0.0264-0.457 0.0792-0.457 0.2684 0 0.0747 0.053 0.1671 0.118 0.2419 0.053 0.0484 0.079 0.0484 0.145 0.0484h0.989l1.128-0.0484c0.286 0 0.672 0 1.199 0.0264 0.338 0 0.554 0.022 0.672 0.022h0.097c0.197 0 0.307-0.1408 0.307-0.3827 0-0.0924-0.096-0.1452-0.281-0.1452h-0.053c-0.188 0-0.333 0-0.43-0.0264l-0.387-0.0924c-0.527-0.1187-0.575-0.2419-0.575-1.5616l-0.026-3.946v-0.4091c0-0.5499 0-0.8886 0.026-1.0074 0-0.07478 0.022-0.19356 0.092-0.36072 0.075-0.19356 0.194-0.36073 0.312-0.45751 0.602-0.52789 1.129-0.76984 1.704-0.76984 0.479 0 0.865 0.16717 1.3 0.55429s0.795 0.9634 0.865 1.3681c0.022 0.1232 0.049 0.4091 0.049 0.893l0.074 3.9944v0.2639c0 1.2538-0.145 1.4209-1.273 1.4693-0.215 0.022-0.36 0.022-0.413 0.0484-0.07 0.022-0.07 0.0484-0.07 0.1452v0.2375c0 0.1232 0.145 0.1936 0.333 0.1936h0.172c0.215-0.022 0.408-0.0484 0.522-0.0484l0.773-0.022c0.435-0.0264 0.694-0.0264 0.769-0.0264 0.241 0 0.479 0 0.746 0.0264 0.435 0.0484 0.813 0.0484 1.107 0.0484 0.501 0 0.624-0.0748 0.624-0.3607 0-0.1716-0.075-0.1936-0.431-0.22-1.08-0.022-1.348-0.2155-1.348-1.0558l-0.075-5.754-0.021-0.60263c0-0.11877 0.307-0.43551 0.742-0.76984 0.36-0.26834 0.94-0.4839 1.3-0.4839 0.601 0 1.388 0.41352 1.849 0.9678 0.527 0.65106 0.817 2.4327 0.817 5.0986 0 1.7112-0.075 2.1423-0.44 2.4107-0.162 0.1187-0.382 0.2155-0.522 0.2155h-0.338c-0.22 0-0.286 0.0484-0.312 0.1452l-0.027 0.0924v0.0484c0 0.1671 0.119 0.2419 0.413 0.2419h0.242l0.935-0.0484 0.914 0.0264h0.988l0.672 0.0484h0.07c0.268 0 0.387-0.0748 0.387-0.2155 0-0.22-0.172-0.3388-0.479-0.3652-0.936-0.0484-1.081-0.4795-1.081-2.9078v-1.0074c0-2.1687-0.36-3.8316-0.961-4.5002-0.672-0.69945-1.827-1.201-2.789-1.201-0.795 0-1.199 0.19356-1.709 0.76984l-0.456 0.55429-0.387 0.33433c-0.79-0.84023-1.032-1.0558-1.515-1.2713-0.435-0.21995-1.129-0.41351-1.515-0.41351-0.65 0-1.274 0.33433-1.968 1.0558-0.118 0.12317-0.285 0.29034-0.527 0.52789-0.145-0.11438-0.171-0.16717-0.171-0.28155l-0.022-1.0602c0-0.11878-0.096-0.29034-0.193-0.36073-0.026-0.04839-0.075-0.04839-0.092-0.04839-0.079 0-0.119 0.0264-0.457 0.21556-0.435 0.26834-0.698 0.40911-0.821 0.4795l-0.382 0.17156c-0.361 0.18916-0.554 0.28154-0.602 0.28154-0.264 0.09678-0.338 0.16717-0.338 0.36513 0 0.09238 0.338 0.31233 1.084 0.64666 0.216 0.11878 0.312 0.21996 0.312 0.33873l0.013-0.0132z"/>
<path d="m151.9 17.604c1.554 0 3.047-0.6511 4.15-1.83 0.241-0.242 0.338-0.4355 0.338-0.6027 0-0.0924-0.048-0.1452-0.114-0.1452-0.053 0-0.145 0.0528-0.224 0.1232l-0.501 0.4575c-0.553 0.5279-1.875 0.937-2.956 0.937-0.838 0-1.414-0.1891-2.068-0.7214-0.865-0.6687-1.129-1.157-1.585-3.031l0.531-0.2155 3.386-1.3242c0.769-0.2903 1.199-0.4575 1.348-0.4795 1.485-0.4355 1.968-0.673 1.968-1.0162 0-0.36073-0.606-1.0558-1.515-1.7288-0.962-0.69506-1.731-0.9854-2.741-0.9854-2.354 0-4.251 2.4063-4.251 5.4109 0 3.0529 1.708 5.1513 4.229 5.1513h5e-3zm-3.053-6.7614 0.075-0.96779c0.048-1.0338 1.129-2.0412 2.183-2.0412 0.628 0 1.106 0.18916 2.068 0.76984 0.286 0.26394 0.505 0.4795 0.672 0.62467 0.246 0.21995 0.409 0.4795 0.409 0.67306 0 0.14519-0.071 0.19359-0.479 0.33429l-4.849 1.8037c-0.074-0.3344-0.096-0.4751-0.096-0.6951 0-0.1672 0.026-0.3343 0.026-0.5015h-9e-3z"/>
<path d="m125.47 13.631-0.115 1.0557c-0.096 1.0074-0.118 1.1086-0.461 1.4957-0.092 0.1144-0.241 0.2156-0.36 0.2816-0.119 0.0748-0.307 0.1188-0.553 0.1979-0.194 0.0704-0.334 0.0924-0.435 0.0924l-0.264 0.022c-0.338 0.0528-0.434 0.1188-0.434 0.4135 0 0.2156 0.193 0.3344 0.505 0.3344 0.14 0 0.263-0.0264 0.404-0.0264 0.246-0.0484 0.65-0.0704 1.251-0.0704 0.694-0.0264 1.155-0.0264 1.322-0.0264 0.264 0 0.65 0.0264 1.177 0.0748 0.435 0.022 0.576 0.022 0.817 0.022 0.672 0 0.817-0.0484 0.817-0.308 0-0.0748-0.026-0.1451-0.092-0.1935-0.067-0.0792-0.125-0.1437-0.171-0.1936-0.022-0.0264-0.093-0.0264-0.189-0.0484-0.839-0.0484-1.278-0.2199-1.52-0.5323-0.36-0.4751-0.575-1.8784-0.575-3.8448 0-0.1495 0.026-0.3123 0.026-0.4839l0.334-6.1411 0.628 0.80063 2.569 4.232 3.558 6.2115 0.386 0.695c0 0.0264 0.075 0.0264 0.141 0.0528 0.026 0.022 0.074 0.022 0.123 0.022 0.096 0 0.188-0.0924 0.333-0.3607l1.515-2.8594 4.278-8.0899 0.334-0.60267 0.65-1.0822 0.167 3.4885c0.074 1.5177 0.118 3.1057 0.118 4.6894 0 1.3945-0.048 2.3843-0.14 2.8198-0.097 0.4135-0.145 0.4795-0.602 0.7479-0.272 0.1451-0.795 0.2419-1.225 0.2419h-0.053c-0.215 0-0.307 0.1408-0.307 0.4355 0 0.2156 0.162 0.308 0.601 0.308 0.264 0 0.457-0.022 0.602-0.0484l0.742-0.0968 0.795-0.0264 1.01 0.0484h0.624l1.006 0.0968h0.628l0.531 0.0484c0.259-0.0484 0.382-0.1936 0.382-0.4092 0-0.2859-0.167-0.4091-0.698-0.4091-1.199 0-1.63-0.4355-1.704-1.7112 0-0.1408 0-0.264-0.022-0.3607l-0.079-0.7743c-0.07-0.6686-0.092-1.8476-0.092-3.5632 0-0.57632 0-2.072-0.027-4.5179l-0.022-0.4399c0-2.3315 0.075-2.6922 0.457-3.0794 0.193-0.19356 0.769-0.36073 1.3-0.40912 0.43-0.02199 0.575-0.10118 0.575-0.33433 0-0.31233-0.241-0.40911-0.913-0.40911h-0.264l-0.698 0.04399h-0.821c-0.958 0-1.103 0.02639-1.243 0.09678-0.119 0.05279-0.242 0.19356-0.36 0.4795-0.606 1.2493-0.993 2.0236-1.16 2.3095l-2.709 5.1733-2.499 4.7686-0.409 0.5543c-0.101-0.0748-0.171-0.1232-0.193-0.1452-0.075-0.0748-0.167-0.2419-0.312-0.5323l-0.628-0.959-0.887-1.5221-2.407-3.9415-2.209-3.682c-0.65-1.1086-1.054-1.7816-1.155-2.0016-0.167-0.30793-0.29-0.50149-0.36-0.52349-0.07-0.05279-0.307-0.07918-0.527-0.07918h-0.167l-0.667 0.05279h-2.166c-0.048 0-0.118 0.02639-0.193 0.04839-0.048 0.02639-0.092 0.05279-0.145 0.09678-0.07 0.04839-0.092 0.09678-0.092 0.14077 0 0.02639 0 0.07478 0.026 0.14517 0 0.02639 0.022 0.07038 0.022 0.14077 0.022 0.14517 0.049 0.17156 0.119 0.17156l0.075-0.02639c0.026 0 0.145 0.02639 0.36 0.04839l0.527 0.07478c0.074 0.022 0.219 0.04839 0.408 0.14517 0.123 0.04399 0.22 0.09678 0.29 0.14077 0.092 0.09678 0.215 0.19356 0.312 0.31234 0.5 0.58068 0.812 1.0558 0.861 1.3505l0.052 0.24195 0.022 0.21555-0.022 0.55429-0.439 8.6178 5e-3 0.0132z"/>
<path d="m45.316 1.8418c0.7247 0.11878 0.9882 0.5015 1.4449 2.0456 0.0923 0.36072 0.3602 1.0558 0.7423 2.138l0.7949 2.116 0.7202 1.7816 0.7203 1.9268 1.054 2.4063c0.1713 0.3607 0.3865 0.9414 0.6763 1.6628 0.1142 0.286 0.2152 0.5015 0.2811 0.6511l0.4831 0.8666c0.0922 0.1452 0.1406 0.1892 0.1933 0.1892 0.0966 0 0.2415-0.1408 0.382-0.4795l0.4348-0.9414c0.2152-0.4531 0.5754-1.267 1.0804-2.4987 0.4787-1.1306 0.7949-1.9268 0.9618-2.3799 0.2855-0.7215 0.4524-1.1834 0.527-1.3241l0.3821-0.89305 1.5196 3.3696c0.2635 0.5323 0.527 1.2054 0.8388 1.9752 0.8125 1.9488 1.3483 3.053 1.5591 3.1542h0.1449c0.145 0 0.3338-0.1936 0.549-0.6027 0.0791-0.1188 0.1713-0.2859 0.2679-0.5059 0.2635-0.5543 0.4348-0.9106 0.4787-1.0338 0.2635-0.5983 0.4787-1.1085 1.0584-2.5734 0.2196-0.6027 0.4085-1.0338 0.527-1.3506 0.4348-0.9634 0.672-1.5396 0.7467-1.7816l0.1888-0.60267c0.0263-0.09678 0.123-0.31234 0.2679-0.62467 0.0922-0.24195 0.2899-0.76984 0.6017-1.5881 0.65-1.83 1.3702-3.5852 1.7347-4.1835 0.1625-0.31233 0.5271-0.65106 0.7906-0.77424l0.4128-0.16716 0.2855-0.14077c0.3118-0.14517 0.4084-0.26835 0.4084-0.46191 0-0.24195-0.1449-0.28594-0.8125-0.28594h-0.0747c-0.0483 0-0.2635 0.021994-0.6719 0.048389-0.3601 0.048389-0.6939 0.048389-1.2473 0.048389-0.5533 0-0.8871 0-2.0202-0.048389h-0.1449c-0.4041 0-0.549 0.092379-0.549 0.31234 0 0.36072 0.0703 0.40911 0.5753 0.43111 0.8652 0.02639 1.3483 0.4575 1.3483 1.2273 0 0.40912-0.1449 1.1306-0.4787 2.2391-0.0527 0.21995-0.2415 0.77423-0.5314 1.6892-0.2591 0.86222-0.4524 1.4385-0.6017 1.7772l-0.6939 1.8037-0.7685 1.9972-0.9135 2.0235c-0.3602-0.3607-0.4129-0.4355-0.7203-1.0338l-0.4787-0.9678-0.3601-0.8842-1.1331-2.7978-0.8388-2.2611-0.549-1.4209-0.4392-1.2713-0.2811-1.0822-0.0263-0.21995 0.0702-0.19356 0.0264-0.21556c0.0263-0.09678 0.1186-0.16716 0.3118-0.19356 0.1405-0.02639 0.2591-0.04839 0.3601-0.09238l0.4085-0.12317 0.2898-0.07039c0.0703-0.02639 0.0967-0.04839 0.0967-0.07478 0-0.45751-0.0747-0.58068-0.3119-0.58068l-0.3118 0.026392h-0.549l-0.8388 0.09678h-0.7729l-0.795-0.02639-0.7685-0.0264-0.6017-0.04839h-0.3865c-0.2635 0-0.4567 0.07479-0.4567 0.19356l0.0263 0.16717v0.11877c0 0.0264 0.0439 0.07479 0.0923 0.09678 0.0702 0.04839 0.1449 0.09238 0.2151 0.09238l0.3602 0.07039c0.4392 0.10118 0.7729 0.29034 0.9398 0.53229 0.0747 0.09678 0.1406 0.19356 0.1669 0.28594 0.0922 0.17156 0.3338 0.79623 0.7466 1.852l0.9882 2.6263 0.1625 0.65106c-0.3075 1.2801-0.4085 1.6101-1.0277 3.0794-0.4128 0.9678-0.6983 1.6365-0.8389 2.0236-0.3381 0.8402-0.6016 1.3241-0.7202 1.3241-0.0527 0-0.101-0.022-0.101-0.0748l-0.0922-0.2595-2.5736-6.3303c-0.0747-0.14517-0.2372-0.62907-0.4787-1.4209-0.1011-0.24195-0.2635-0.76984-0.5534-1.5617-0.4084-1.1834-0.527-1.5881-0.527-1.9048 0-0.5059 0.3381-0.76984 1.1814-0.82263 0.1669-0.022 0.3074-0.07039 0.3074-0.11438l0.0527-0.16716c0.022-0.09678 0.0483-0.16717 0.0483-0.19356 0-0.04839-0.0747-0.12318-0.1449-0.16717-0.0747-0.05279-0.1669-0.09678-0.2635-0.09678h-0.0264l-0.3865 0.04839-0.6499 0.0264-0.2636 0.02639h-0.505c-0.3865 0-0.9091 0-1.2517-0.02639-0.6016-0.0264-0.9091-0.04839-0.9618-0.04839-0.2591 0-0.4304 0-0.527-0.0264-0.1669-0.026391-0.2855-0.026391-0.3601-0.026391-0.2196 0-0.4085 0.16716-0.4085 0.38712 0 0.24195 0.145 0.33433 0.7686 0.4575l-0.0132 0.0044z"/>
<path d="m66.867 12.452c0 3.0529 1.7084 5.1513 4.2293 5.1513 1.5635 0 3.0523-0.6511 4.159-1.83 0.2416-0.242 0.3338-0.4355 0.3338-0.6027 0-0.0924-0.0527-0.1452-0.1186-0.1452-0.0527 0-0.1449 0.0528-0.2152 0.1232l-0.505 0.4575c-0.5534 0.5279-1.8753 0.937-2.9557 0.937-0.8432 0-1.4186-0.1891-2.0685-0.7214-0.8652-0.6687-1.1287-1.157-1.5855-3.031l0.527-0.2155 3.3861-1.3242c0.773-0.2903 1.199-0.4575 1.3483-0.4795 1.4888-0.4355 1.9719-0.673 1.9719-1.0162 0-0.36073-0.6017-1.0558-1.5196-1.7288-0.9618-0.69506-1.7259-0.9854-2.736-0.9854-2.354 0-4.2513 2.4063-4.2513 5.4109zm3.4344-4.6191c0.628 0 1.1067 0.18916 2.0641 0.76984 0.2899 0.26394 0.5095 0.4795 0.6764 0.62467 0.2415 0.21995 0.4084 0.4795 0.4084 0.67306 0 0.14519-0.0747 0.19359-0.4743 0.33429l-4.8573 1.8037c-0.0791-0.3344-0.1011-0.4751-0.1011-0.6951 0-0.1672 0.022-0.3343 0.022-0.5015l0.0791-0.96779c0.0439-1.0338 1.1287-2.0412 2.1827-2.0412z"/>
<path d="m77.271 16.975h-0.1449c-0.2635 0-0.3338 0.0528-0.3338 0.2419 0 0.22 0.1186 0.286 0.505 0.286h0.2153l1.1989-0.0968h0.2899c0.5006 0 1.3658 0.0264 1.9895 0.0968 0.3864 0.0484 0.6763 0.0484 0.8388 0.0484 0.3382 0 0.4787-0.0704 0.4787-0.264 0-0.2155-0.0703-0.2595-0.4084-0.2595h-0.1186c-0.0483 0-0.2152-0.0264-0.4787-0.0792-0.2635-0.0484-0.527-0.1144-0.7422-0.2156-0.1977-0.0704-0.3382-0.1451-0.4129-0.2419-0.2152-0.2684-0.3074-1.157-0.3074-3.031v-2.4371c0-1.4385 0.8608-2.4547 2.0422-2.4547 0.1669 0 0.3338 0.02639 0.549 0.11877l0.4391 0.14077c0.1625 0.07919 0.3075 0.12318 0.4304 0.12318 0.2416 0 0.6281-0.21556 0.8213-0.45751 0.1405-0.19356 0.2855-0.60267 0.2855-0.84022 0-0.36513-0.5051-0.65107-1.1287-0.65107-0.8169 0-1.9017 0.55429-2.5473 1.2977-0.4347 0.4795-0.6983 0.72585-0.8388 0.72585-0.0747 0-0.101-0.07478-0.101-0.19796v-0.07038c0-0.10118 0.0263-0.16717 0.0263-0.24195l-0.0263-0.57628c0-0.82263-0.0483-0.91501-0.3074-0.91501-0.1186 0-0.145 0-0.4129 0.18916-0.0702 0.05279-0.3074 0.17156-0.6939 0.36072-0.0527 0.0264-0.2415 0.11878-0.6016 0.33433-0.2196 0.09678-0.4129 0.19796-0.5798 0.26835-0.2635 0.11438-0.382 0.19356-0.382 0.26394v0.14517c0 0.04839 0.0219 0.07039 0.0219 0.09238 0.0483 0.05279 0.0966 0.09239 0.1933 0.14078 0.0922 0.02639 0.2152 0.05278 0.4084 0.12317 0.505 0.14077 0.7202 0.24195 0.7949 0.38272 0.0747 0.14517 0.1186 0.55428 0.1186 1.3989l-0.0264 5.0281 0.0264 0.4311c-0.0264 0.198-0.1449 0.3652-0.3074 0.4839-0.2899 0.1672-0.6061 0.286-0.773 0.286v0.022z"/>
<path d="m85.782 9.0386c0.0966 0.04839 0.2635 0.11438 0.4568 0.16717 0.7202 0.24195 0.8125 0.43551 0.8125 1.5661 0 0.3871 0 0.8182-0.0264 1.2713-0.0439 0.7479-0.0439 1.5925-0.022 2.4811 0.022 0.3123 0.022 0.6291 0.022 0.9106 0 1.135-0.0439 1.2802-0.4304 1.3725l-0.2854 0.0748h-0.3646l-0.1625 0.0484c-0.0527 0-0.0849 0.0073-0.0966 0.022-0.0219 0.0264-0.0483 0.0528-0.0483 0.1232v0.1935c0 0.1408 0.0703 0.2376 0.2152 0.2376l0.0703-0.022 0.5577-0.0484c0.1186-0.0264 0.3074-0.0264 0.549-0.0264h0.5051c0.6016 0.0264 0.9881 0.0484 1.1814 0.0748 0.2152 0.022 0.3557 0.022 0.4347 0.022h0.6017l0.2416 0.0264c0.0922 0 0.1669-0.1188 0.1669-0.286 0-0.2683-0.022-0.2683-0.6281-0.3387-0.3557-0.022-0.5533-0.0924-0.7685-0.2375-0.1669-0.0968-0.2196-0.198-0.2196-0.4619-0.0483-1.179-0.0483-2.2084-0.0483-3.097 0-1.7376 0.0483-3.0794 0.1712-3.3741 0.022-0.07478 0.0703-0.19356 0.1889-0.33873 0.5577-0.81383 1.3966-1.2713 2.2793-1.2713 0.9662 0 2.0949 0.62907 2.455 1.3725l0.0923 0.24195 0.1449 0.21556c0.0922 0.14513 0.1933 0.80063 0.1933 1.3505l-0.022 4.5222v0.3652c0 0.3827-0.4128 0.6686-0.9618 0.6686h-0.4128c-0.1933 0-0.2679 0.0484-0.2899 0.1716l-0.0176 0.0924v0.0484c0 0.0967 0.0176 0.1407 0.1625 0.2155 0.0527 0.0264 0.0747 0.0264 0.0747 0.0528h0.1669c0.2898-0.0528 1.2253-0.0748 1.9719-0.0748s1.3483 0.022 1.6821 0.0484c0.0483 0.0264 0.1185 0.0264 0.1712 0.0264 0.0703 0 0.1186-0.0264 0.2108-0.0968 0.101-0.0484 0.123-0.0924 0.123-0.1671 0-0.1936-0.1449-0.286-0.4831-0.3344-0.8608-0.0968-0.9838-0.3387-0.9838-1.9708v-0.2463l0.0484-2.7186c0-2.2392-0.1669-2.7671-1.2737-3.8976-0.2854-0.31234-0.6456-0.55429-1.0057-0.69946-0.3118-0.11877-0.9662-0.24194-1.4185-0.24194-0.7949 0-2.1344 0.77424-2.8371 1.6101-0.101 0.11878-0.1406 0.16716-0.1406 0.19356-0.0527 0.05279-0.0966 0.10118-0.1932 0.17157l-0.1186-0.60268v-1.0338c0-0.07479-0.0263-0.17157-0.0966-0.24635-0.0483-0.04399-0.0966-0.07039-0.1186-0.07039h-0.0483c-0.0747 0-0.1932 0.04839-0.3382 0.14077l-0.4567 0.26835-0.6676 0.38711-0.5577 0.33434c-0.1625 0.09678-0.3075 0.17156-0.4304 0.21995-0.0966 0.022-0.1713 0.07039-0.2152 0.07039-0.0264 0.02639-0.0791 0.05279-0.0791 0.07478-0.0219 0.0264-0.0219 0.09238-0.0219 0.14517 0 0.16717 0.0219 0.19356 0.1669 0.24195 0.0263 0 0.0922 0.02639 0.1712 0.07478v-0.0132z"/>
<path d="m102.38 17.604c1.555 0 3.048-0.6511 4.155-1.83 0.241-0.242 0.334-0.4355 0.334-0.6027 0-0.0924-0.049-0.1452-0.119-0.1452-0.048 0-0.145 0.0528-0.215 0.1232l-0.505 0.4575c-0.554 0.5279-1.876 0.937-2.956 0.937-0.839 0-1.419-0.1891-2.069-0.7214-0.86-0.6687-1.1282-1.157-1.5806-3.031l0.527-0.2155 3.3816-1.3242c0.773-0.2903 1.203-0.4575 1.348-0.4795 1.494-0.4355 1.972-0.673 1.972-1.0162 0-0.36073-0.601-1.0558-1.519-1.7288-0.958-0.69506-1.731-0.9854-2.736-0.9854-2.354 0-4.2516 2.4063-4.2516 5.4109 0 3.0529 1.7084 5.1513 4.2336 5.1513zm-3.0522-6.7614 0.0747-0.96779c0.0483-1.0338 1.1285-2.0412 2.1875-2.0412 0.628 0 1.106 0.18916 2.068 0.76984 0.286 0.26394 0.501 0.4795 0.668 0.62467 0.241 0.21995 0.412 0.4795 0.412 0.67306 0 0.14519-0.074 0.19359-0.478 0.33429l-4.8575 1.8037c-0.0747-0.3344-0.0923-0.4751-0.0923-0.6951 0-0.1672 0.0176-0.3343 0.0176-0.5015z"/>
<path d="m108.55 16.975h-0.145c-0.264 0-0.334 0.0528-0.334 0.2419 0 0.22 0.119 0.286 0.505 0.286h0.215l1.199-0.0968h0.29c0.505 0 1.366 0.0264 1.994 0.0968 0.382 0.0484 0.672 0.0484 0.839 0.0484 0.334 0 0.479-0.0704 0.479-0.264 0-0.2155-0.075-0.2595-0.409-0.2595h-0.118c-0.053 0-0.216-0.0264-0.479-0.0792-0.268-0.0484-0.531-0.1144-0.747-0.2156-0.193-0.0704-0.333-0.1451-0.408-0.2419-0.22-0.2684-0.312-1.157-0.312-3.031v-2.4371c0-1.4385 0.865-2.4547 2.042-2.4547 0.172 0 0.334 0.02639 0.554 0.11877l0.434 0.14077c0.163 0.07919 0.312 0.12318 0.431 0.12318 0.246 0 0.628-0.21556 0.821-0.45751 0.141-0.19356 0.286-0.60267 0.286-0.84022 0-0.36513-0.501-0.65107-1.129-0.65107-0.821 0-1.902 0.55429-2.547 1.2977-0.435 0.4795-0.694 0.72585-0.835 0.72585-0.079 0-0.096-0.07478-0.096-0.19796v-0.07038c0-0.10118 0.022-0.16717 0.022-0.24195l-0.022-0.57628c0-0.82263-0.049-0.91501-0.312-0.91501-0.119 0-0.145 0-0.409 0.18916-0.074 0.05279-0.311 0.17156-0.698 0.36072-0.053 0.0264-0.242 0.11878-0.602 0.33433-0.219 0.09678-0.408 0.19796-0.575 0.26835-0.263 0.11438-0.386 0.19356-0.386 0.26394v0.14517c0 0.04839 0.026 0.07039 0.026 0.09238 0.048 0.05279 0.097 0.09239 0.189 0.14078 0.096 0.02639 0.219 0.05278 0.413 0.12317 0.505 0.14077 0.72 0.24195 0.79 0.38272 0.075 0.14517 0.123 0.55428 0.123 1.3989l-0.031 5.0281 0.031 0.4311c-0.031 0.198-0.145 0.3652-0.312 0.4839-0.29 0.1672-0.601 0.286-0.773 0.286l-4e-3 0.022z"/>
<path d="m31.333 17.604c1.2472 0 2.0422-0.2904 2.6438-1.0118 0.2635-0.308 0.2855-0.3344 0.5271-0.4575v0.915c0 0.5762 0.0483 0.7698 0.2195 0.7698 0.0484 0 0.1186-0.022 0.1713-0.0704 0-0.0264 0.022-0.0528 0.0703-0.1232 0.0703-0.0747 0.2415-0.2155 0.527-0.3827l0.6236-0.3871 0.5534-0.3123c0.2899-0.1408 0.4568-0.2156 0.5051-0.242 0.3118-0.1144 0.4084-0.1891 0.4084-0.3079 0-0.1452-0.1449-0.2904-0.3382-0.2904l-0.0219 0.0264-0.5314 0.0484h-0.0703c-0.3382 0-0.5314-0.2155-0.5534-0.5762l-0.0219-0.3608-0.0703-7.4124v-6.2819c0-0.07918 0.022-0.19796 0.022-0.38712v-0.079184c0-0.43551-0.0703-0.52789-0.4085-0.52789-0.0219 0-0.0483 0.026395-0.0746 0.026395l-0.2152 0.096779-0.3118 0.16716-0.7423 0.43551c-0.0746 0.021995-0.2898 0.14077-0.6236 0.28154-0.5534 0.26834-0.8432 0.4575-0.8432 0.60267 0 0.10118 0.1186 0.19796 0.3865 0.26835l0.7422 0.21555 0.5753 0.24635 0.0966 4.4959-0.0219 0.21996c-0.022 0.31233-0.0484 0.38272-0.1669 0.38272-0.0483 0-0.0967-0.022-0.1933-0.07039-0.4787-0.19356-1.4668-0.33873-2.3803-0.33873-3.1973 0-5.235 1.9972-5.235 5.125 0 3.1277 1.9675 5.2965 4.7563 5.2965h-0.0044zm-0.0483-9.7704c1.1989 0 2.354 0.26394 2.8371 0.66866 0.3162 0.24635 0.3821 0.4839 0.3821 1.201v5.512c-0.9355 0.9854-1.3922 1.2758-2.1345 1.2758-2.5736 0-4.4708-2.0456-4.4708-4.861 0-2.2875 1.3702-3.7964 3.3861-3.7964z"/>
<path d="m14.222 7.9742c0.672 0.04839 0.9618 0.36073 0.9838 1.0602l0.0483 3.8756c0.0483 3.053 1.4405 4.6894 3.9614 4.6894 1.2736 0 1.827-0.2683 2.6658-1.3021 0.0747-0.0748 0.145-0.1672 0.2416-0.2859l0.0703 0.1715 0.0483 0.2156 0.0966 0.4575 0.0746 0.4575c0 0.0968 0.0703 0.1452 0.2152 0.1452h0.0923l0.2635-0.0484 0.4084-0.0968 0.5051-0.1892 0.4567-0.1715c0.1288-0.047 0.2328-0.0851 0.3118-0.1144 0.5051-0.1672 0.6237-0.264 0.6237-0.5059 0-0.1672-0.0967-0.286-0.2855-0.286l-0.2416 0.022h-0.0483c-0.6236 0-0.8915-0.3607-0.8915-1.1261l0.0264-4.6499 0.0219-1.8828v-0.16717c0-0.937-0.0219-1.0558-0.3118-1.0558l-0.3118-0.0264-0.3821 0.0264-0.2635 0.07478-0.2679-0.02639c-0.0483 0-0.1186 0-0.2635 0.02639-0.1186 0.02639-0.3118 0.02639-0.6017 0.02639-0.0922-0.02639-0.2152-0.02639-0.3118-0.02639-0.5753 0-0.7422 0.07478-0.7422 0.31233 0 0.28594 0.0966 0.33433 0.4787 0.35633 0.9618 0.05279 1.2472 0.31233 1.2472 1.1834l0.0484 3.3213-0.022 0.893c-0.0747 2.2391-0.3865 2.8418-1.6601 3.2465-0.2679 0.0968-0.5051 0.1452-0.7686 0.1452-1.6337 0-2.9776-1.6892-2.9776-3.7304 0-0.0748 0-0.1716 0.022-0.242v-0.4135l-0.0484-0.3607v-0.9898c-0.0219-0.2375 0-1.1086 0.0484-2.5779v-0.28594c0-0.79623-0.0484-0.9414-0.3382-0.9414-0.022 0-0.0966 0.02639-0.1449 0.02639-0.3382 0.04839-1.0058 0.09678-1.827 0.11878-0.4304 0-0.6237 0.09678-0.6237 0.26394 0 0.26395 0.0967 0.38712 0.3602 0.38712h0.0131z"/>
<path d="m0.62511 16.737-0.096621-0.022c-0.40844 0-0.50506 0.0704-0.50506 0.4312 0 0.2683 0.11858 0.3387 0.57533 0.3387 0.26351 0 0.60168-0.0264 1.0101-0.0968 0.33817-0.022 0.98815-0.022 1.9456 0.0264 0.31182 0.0264 1.0057 0.0484 2.0422 0.0748h1.0101c1.7084 0 2.9337-0.286 3.8912-0.9414 1.2297-0.8139 2.1871-2.4811 2.1871-3.8712 0-1.135-0.6456-2.5031-1.4888-3.1542-0.5534-0.43551-0.65-0.4795-2.2618-1.1306 1.9016-0.80064 2.7185-1.8828 2.7185-3.5677 0-2.4107-2.0905-3.8272-5.6215-3.8272-0.36013 0-0.6983 0.026396-1.0321 0.074786-0.28547 0.05279-0.47871 0.07918-0.57533 0.07918h-1.199l-1.0584 0.0176-1.3922 0.02639-0.40844 0.07479-0.2152 0.07478-0.02196 0.16717v0.04839c0 0.21555 0.070268 0.29034 0.36013 0.31233 1.1287 0.11878 1.4888 0.43551 1.4888 1.3505l-0.04831 11.741c0 1.3505-0.31182 1.7816-1.3 1.7816l-0.004394-0.0088zm3.2675-14.297c0.07027-0.53228 0.26351-0.58067 2.2574-0.58067 1.7787 0 3.2719 1.5661 3.2719 3.4445 0 1.8256-1.0101 2.8154-2.9557 2.8154l-1.8533-0.02639h-0.09662c-0.45236 0-0.60168-0.11878-0.60168-0.60268l-0.04831-4.7642 0.02196-0.29034 0.00439 0.00439zm-0.02635 6.8802c0-0.40472 0.50067-0.57188 1.6821-0.57188 2.9074 0 4.9276 1.7508 4.9276 4.2847 0 2.3051-1.6337 3.7744-4.2293 3.7744-1.805 0-2.3804-0.5059-2.3804-1.9444v-5.5428z"/>
</g>
</svg>
