<svg xmlns="http://www.w3.org/2000/svg" xmlns:xlink="http://www.w3.org/1999/xlink" width="1920" height="80" viewBox="0 0 1920 80">
  <defs>
    <clipPath id="clip-search-background">
      <rect width="1920" height="80"/>
    </clipPath>
  </defs>
  <g id="search-background" clip-path="url(#clip-search-background)">
    <path id="Path_59750" data-name="Path 59750" d="M0,16.731c429.271,2.519,810.458.8,1224.63,1.09q-9.658.271-19.316.545,77.264-.547,154.527-1.09c84.067,3.261,217.847,3.45,318.7.545h152.609c14.4.309,24.8-1.824,32.833-1.635,15.952.378,32.817,3.214,56.014,2.18-1.948-4.99-.465-7.7,0-13.616-90.125-6.3-300.043-5.986-399.833-1.09-63.99,3.145-124.449-1.09-189.308-1.086q-128.429-.547-256.89-1.09c10.716,1.832-86.929,2.712-100.445,2.721l7.732-1.086c-61.662-3.729-125.012.459-183.508.541V3.12q5.8-.277,11.583-.545Q706.977,3.115,604.59,3.66c-158.18,0-267.134-1.605-428.815-1.631q2.9-.277,5.8-.545V.939C150.6.965,123.49,5.132,100.445,4.75,53.488,3.969,54.2,3.137,1.614,3.12Z" transform="translate(1920 80) rotate(180)" fill="#404040"/>
    <path id="Path_59750-2" data-name="Path 59750" d="M1920,16.731c-429.271,2.519-810.458.8-1224.63,1.09q9.658.271,19.316.545-77.264-.547-154.527-1.09c-84.067,3.261-217.847,3.45-318.7.545H88.847c-14.4.309-24.795-1.824-32.832-1.635C40.062,16.564,23.2,19.4,0,18.367c1.948-4.99.465-7.7,0-13.616,90.125-6.3,300.043-5.986,399.833-1.09,63.991,3.146,124.449-1.09,189.308-1.086q128.429-.547,256.89-1.09C835.315,3.317,932.959,4.2,946.476,4.205L938.744,3.12c61.661-3.729,125.012.459,183.508.541V3.12q-5.8-.277-11.583-.545,102.355.541,204.742,1.086c158.18,0,267.134-1.605,428.815-1.631q-2.9-.277-5.8-.545V.94c30.976.026,58.085,4.193,81.13,3.811,46.957-.781,46.241-1.614,98.831-1.631Z" transform="translate(1920 75.065) rotate(180)" fill="#80ba3f"/>
    <path id="Path_59750-3" data-name="Path 59750" d="M0,2.059C227.208.406,428.966,1.532,648.183,1.344q-5.112-.178-10.224-.358l81.789.715c44.5-2.14,115.3-2.264,168.686-.358h80.774c7.621-.2,13.124,1.2,17.378,1.073,8.443-.248,17.37-2.109,29.648-1.43,30,1.661,101.141,2.306,131.884.358q83.312.714,166.648,1.43-17.378-.359-34.764-.715l-1.023-.715,105.306.715q28.11-.359,56.226-.715c22,1.7,56.081,1.38,78.728,0,29.881-1.819,56.411,2.244,72.581.358q12.278.177,24.54.358c30.043,0,58.732.87,84.859-.715h50.1c49.088,0,99.682,1.371,139.038-.358-2.135.6-2.014.572-6.13.715q17.885.359,35.778.715v8.931c-34.989.014-42.369.69-75.65-.358q2.042.182,4.084.358-17.886.359-35.779.715c-44.52,0-66.458-1.281-108.376-1.428.685.355,1.37.712,2.047,1.07-25.716.053-44.416-.949-69.519-1.07l5.116.355c-21.64,3.294-43.578,1.194-69.527,1.073q9.716-.355,19.425-.715c-13.938-1.9-36.464.318-49.072.715-38.647,1.225-78.413-.3-116.545-.358q2.042.181,4.084.358l-279.1-1.428,8.177.355c-28.963,4.987-109.149-4.015-143.131-1.07-47.7,4.136-158.809,3.928-211.627.715-33.87-2.064-65.87.715-100.2.712q-67.976.359-135.969.715c5.672-1.2-46.01-1.779-53.165-1.785l4.092.712c-32.637,2.447-66.167-.3-97.129-.355v.355q3.07.182,6.131.358L320,10.635c-83.723,0-141.391,1.053-226.967,1.07q1.535.181,3.07.358v.358c-16.4-.017-30.743-2.751-42.941-2.5-24.854.512-24.475,1.059-52.31,1.07Z" transform="translate(1920 15.026) rotate(180)" fill="#80ba3f"/>
    <rect id="Rectangle_2629" data-name="Rectangle 2629" width="1920" height="51.623" transform="translate(1920 60.131) rotate(180)" fill="#80ba3f"/>
  </g>
</svg>
